<?xml version="1.0" standalone="no"?>
<!DOCTYPE svg PUBLIC "-//W3C//DTD SVG 20010904//EN"
 "http://www.w3.org/TR/2001/REC-SVG-20010904/DTD/svg10.dtd">
<svg version="1.0" xmlns="http://www.w3.org/2000/svg"
 width="512.000000pt" height="512.000000pt" viewBox="0 0 512.000000 512.000000"
 preserveAspectRatio="xMidYMid meet">
<metadata>
Created by potrace 1.16, written by Peter Selinger 2001-2019
</metadata>
<g transform="translate(0.000000,512.000000) scale(0.100000,-0.100000)"
fill="#000000" stroke="none">
<path d="M1496 5109 c-401 -24 -690 -114 -926 -289 -82 -61 -233 -215 -292
-300 -138 -195 -227 -461 -260 -780 -19 -185 -19 -2170 1 -2357 7 -73 18 -133
22 -133 5 0 41 16 80 36 89 44 202 86 297 109 l74 18 -7 36 c-3 20 -9 450 -12
956 -7 1275 4 1441 110 1689 42 100 89 170 171 254 86 90 173 149 286 195 236
96 381 107 1520 107 1139 0 1284 -11 1520 -107 113 -46 200 -105 286 -195 86
-88 132 -158 177 -269 96 -235 107 -382 107 -1519 0 -1137 -11 -1284 -107
-1519 -45 -111 -91 -181 -177 -269 -86 -90 -173 -149 -286 -195 -227 -93 -398
-107 -1319 -107 l-623 0 6 -22 c35 -119 58 -231 68 -331 l12 -119 715 5 c453
3 755 9 821 16 306 35 570 125 760 259 91 64 248 220 313 311 146 202 235 463
269 791 19 180 19 2180 0 2360 -34 328 -123 589 -269 791 -65 91 -222 247
-313 311 -190 134 -452 223 -760 259 -125 14 -2044 22 -2264 8z"/>
<path d="M3823 4222 c-131 -47 -207 -159 -206 -303 1 -248 282 -389 491 -247
191 131 167 431 -44 534 -73 35 -169 42 -241 16z"/>
<path d="M2386 3869 c-561 -77 -999 -489 -1122 -1054 -27 -125 -24 -399 5
-530 61 -267 185 -489 375 -673 181 -174 388 -285 641 -343 144 -32 406 -32
550 0 527 120 910 510 1022 1041 25 118 25 382 0 500 -114 537 -510 935 -1042
1045 -95 20 -332 28 -429 14z m398 -494 c294 -85 502 -293 592 -592 23 -76 27
-106 27 -223 0 -117 -4 -147 -27 -223 -90 -299 -294 -503 -593 -593 -76 -23
-106 -27 -223 -27 -117 0 -147 4 -223 27 -299 90 -503 294 -593 593 -23 76
-27 106 -27 223 0 117 4 147 27 223 100 333 362 564 699 618 89 14 244 2 341
-26z"/>
</g>
</svg>
