<?xml version="1.0" standalone="no"?>
<!DOCTYPE svg PUBLIC "-//W3C//DTD SVG 20010904//EN"
 "http://www.w3.org/TR/2001/REC-SVG-20010904/DTD/svg10.dtd">
<svg version="1.0" xmlns="http://www.w3.org/2000/svg"
 width="512.000000pt" height="512.000000pt" viewBox="0 0 512.000000 512.000000"
 preserveAspectRatio="xMidYMid meet">

<g transform="translate(0.000000,512.000000) scale(0.100000,-0.100000)"
fill="#000000" stroke="none">
<path d="M1078 4980 c-489 -58 -881 -454 -938 -950 -6 -49 -10 -468 -10 -991
l0 -906 306 -184 c169 -101 311 -185 315 -187 5 -2 10 392 12 875 3 875 3 878
25 958 35 121 120 287 199 385 130 162 339 297 543 352 l85 23 945 0 945 0 85
-23 c123 -33 290 -119 390 -200 162 -131 298 -340 352 -542 l23 -85 0 -945 0
-945 -23 -85 c-32 -120 -118 -289 -197 -387 -139 -174 -320 -290 -555 -356
-71 -20 -104 -22 -613 -27 l-537 -5 521 -313 521 -312 231 0 c359 0 491 22
673 110 340 165 561 478 603 853 14 124 15 2803 1 2932 -13 124 -43 233 -95
343 -160 339 -474 566 -845 612 -100 12 -2857 12 -2962 0z"/>
<path d="M1630 4014 c-98 -20 -234 -92 -312 -164 -111 -101 -192 -244 -217
-384 -7 -40 -11 -341 -11 -905 0 -876 2 -926 42 -1008 10 -20 109 -84 377
-245 l363 -219 802 3 801 3 84 29 c236 83 416 291 460 530 15 82 15 1730 0
1812 -50 273 -280 503 -553 553 -96 18 -1752 13 -1836 -5z m1990 -306 c88 -46
136 -145 112 -235 -44 -165 -248 -219 -364 -96 -99 104 -66 266 67 336 45 24
132 21 185 -5z m-835 -236 c101 -29 151 -48 225 -89 193 -106 356 -293 429
-493 46 -127 55 -181 55 -330 0 -149 -9 -204 -55 -328 -152 -414 -599 -673
-1032 -597 -202 35 -360 118 -507 265 -221 221 -317 515 -265 814 36 205 127
378 273 518 148 142 323 229 527 262 67 10 281 -3 350 -22z"/>
<path d="M2430 3155 c-133 -30 -271 -118 -352 -226 -257 -339 -101 -823 307
-952 54 -17 95 -22 175 -22 171 0 311 57 429 176 119 118 176 258 176 429 0
80 -5 121 -22 175 -60 189 -217 348 -403 406 -86 27 -225 33 -310 14z"/>
</g>
</svg>
