<?xml version="1.0" standalone="no"?>
<!DOCTYPE svg PUBLIC "-//W3C//DTD SVG 20010904//EN"
 "http://www.w3.org/TR/2001/REC-SVG-20010904/DTD/svg10.dtd">
<svg version="1.0" xmlns="http://www.w3.org/2000/svg"
 width="628.000000pt" height="628.000000pt" viewBox="0 0 628.000000 628.000000"
 preserveAspectRatio="xMidYMid meet">
<metadata>
Created by potrace 1.16, written by Peter Selinger 2001-2019
</metadata>
<g transform="translate(0.000000,628.000000) scale(0.100000,-0.100000)"
fill="#000000" stroke="none">
<path d="M0 5906 c0 -336 5 -419 23 -374 4 10 6 10 6 0 1 -7 -6 -15 -14 -18
-11 -5 -15 -21 -14 -63 0 -49 2 -53 11 -28 10 29 28 37 28 12 0 -8 -5 -15 -12
-15 -6 0 -4 -8 7 -20 9 -10 15 -25 12 -33 -3 -8 1 -14 9 -14 8 0 14 6 14 14 0
18 17 16 24 -3 3 -8 10 -13 14 -10 5 3 24 -6 42 -19 31 -23 34 -23 46 -7 12
15 13 15 14 -8 0 -88 4 -128 13 -123 5 3 8 0 5 -7 -2 -7 -14 -15 -26 -17 -27
-4 -30 21 -4 36 14 8 15 12 5 22 -10 10 -13 10 -13 1 0 -15 -31 -12 -42 3 -4
6 -8 -2 -8 -17 0 -15 -4 -29 -9 -32 -5 -4 -7 4 -5 16 2 13 2 17 -2 10 -3 -6
-11 -9 -17 -5 -6 4 -8 0 -4 -10 4 -11 2 -14 -8 -11 -16 7 -29 39 -21 53 3 5
-1 15 -10 22 -9 7 -20 23 -25 36 -5 13 -15 23 -24 23 -22 0 -22 -294 0 -317
17 -16 10 -37 -8 -26 -7 4 -6 0 2 -10 9 -11 10 -17 2 -17 -7 0 -10 -18 -9 -50
1 -27 6 -44 10 -37 7 11 12 2 9 -16 -1 -5 4 -7 11 -5 7 3 20 -7 29 -21 16 -25
15 -27 -5 -49 -20 -23 -21 -24 -1 -20 11 1 23 8 27 13 4 6 8 2 8 -7 0 -22 18
-24 26 -3 4 8 10 12 15 9 5 -3 9 -1 9 3 0 5 -9 14 -20 21 -11 7 -20 19 -20 27
0 8 -6 14 -12 12 -7 -1 -14 8 -16 21 -3 17 1 22 17 22 12 0 21 7 21 15 0 8 9
19 19 24 15 9 20 7 25 -12 5 -18 8 -20 16 -7 8 13 10 12 10 -2 0 -10 -5 -18
-11 -18 -5 0 -7 -5 -4 -10 4 -6 11 -8 16 -5 5 4 9 1 9 -4 0 -22 20 -10 21 12
1 19 2 19 6 3 4 -14 7 -15 13 -6 4 6 19 13 34 13 20 2 24 6 20 20 -3 9 0 17 6
17 7 0 14 -9 17 -20 3 -11 9 -20 14 -20 5 0 9 -10 9 -22 -1 -21 -2 -22 -14 -5
-20 26 -29 21 -22 -13 4 -20 1 -30 -7 -30 -6 -1 1 -7 18 -14 23 -10 26 -14 13
-18 -9 -4 -18 -17 -20 -29 -2 -12 -8 -24 -14 -26 -7 -2 -10 5 -7 20 3 14 0 28
-6 31 -5 4 -8 13 -5 21 7 18 -8 24 -61 28 -28 1 -39 -2 -38 -11 2 -6 -1 -12
-6 -12 -5 0 -9 -27 -7 -61 1 -45 6 -63 19 -70 16 -9 25 -44 10 -36 -5 2 -18
-7 -30 -20 -16 -17 -18 -23 -8 -23 8 0 23 -8 33 -17 9 -10 28 -18 42 -17 14 0
31 -4 38 -9 6 -5 13 -7 13 -3 3 13 7 26 9 31 1 3 3 9 4 15 0 5 7 15 13 22 7 6
13 18 13 26 0 7 4 11 8 8 4 -3 13 8 19 25 9 24 8 31 -4 38 -14 8 -14 11 0 32
20 28 65 37 73 14 4 -9 16 -21 28 -27 19 -10 20 -10 7 6 -8 9 -11 19 -8 22 9
9 27 -5 27 -22 0 -8 7 -14 16 -14 11 0 15 -6 11 -20 -3 -11 -1 -20 4 -20 5 0
9 -9 9 -19 0 -11 4 -22 9 -25 5 -4 7 11 4 34 -4 27 -2 40 6 40 7 0 9 -5 5 -12
-6 -10 -4 -10 8 0 13 10 17 10 22 -3 3 -9 10 -14 14 -11 5 3 7 -6 4 -20 -2
-14 1 -36 8 -49 9 -16 10 -45 6 -92 -11 -113 -13 -223 -5 -223 5 0 4 -11 -1
-25 -8 -22 -8 -50 -1 -167 1 -24 18 -23 26 2 9 29 27 25 19 -5 -3 -14 -3 -32
0 -41 6 -14 10 -13 29 8 12 14 30 28 40 31 9 4 20 20 23 37 4 16 10 28 13 25
4 -2 13 12 20 31 8 23 19 34 32 34 17 0 19 7 17 70 -2 42 1 68 7 67 6 -1 10
-12 9 -24 0 -12 4 -19 10 -16 5 4 7 -1 2 -12 -6 -16 -4 -16 11 -4 15 12 16 12
10 -3 -3 -10 -3 -17 1 -16 4 2 20 -6 35 -16 25 -17 28 -24 23 -60 -3 -23 -3
-33 0 -24 4 14 14 16 50 13 40 -4 45 -3 40 13 -3 9 -1 24 5 32 8 12 9 10 4 -7
-4 -13 -2 -23 4 -23 12 0 24 36 16 50 -3 5 0 7 9 4 11 -4 13 2 11 31 -5 48
-12 54 -27 20 -11 -24 -13 -25 -24 -10 -11 15 -14 14 -28 -13 -29 -56 -49 -53
-100 19 -34 46 -35 66 -4 54 10 -4 15 5 16 31 2 21 5 41 8 46 3 4 0 8 -5 8 -6
0 -11 -5 -11 -11 0 -5 -4 -7 -10 -4 -14 9 -12 38 5 61 13 18 14 18 8 -5 -4
-17 -3 -22 5 -17 7 4 12 16 12 26 0 24 20 37 21 13 1 -13 3 -11 9 7 4 14 9 18
9 10 1 -12 3 -13 10 -1 7 11 13 9 30 -8 11 -11 25 -21 29 -21 5 0 19 -11 32
-25 29 -30 45 -33 30 -4 -7 11 -9 23 -6 27 3 3 6 0 6 -6 0 -7 5 -12 10 -12 6
0 10 9 10 20 0 11 3 20 8 20 13 -1 57 -40 45 -40 -7 0 -10 -7 -7 -15 4 -8 1
-15 -5 -15 -8 0 -7 -6 1 -20 7 -11 18 -18 25 -16 6 3 13 0 15 -5 2 -6 15 0 29
13 27 25 30 25 94 -3 11 -5 40 -16 65 -24 59 -21 92 -43 84 -57 -5 -7 -2 -8 5
-3 22 13 61 -16 61 -44 1 -22 2 -23 10 -9 6 9 18 15 28 13 9 -2 17 -4 17 -5 0
-1 13 -4 30 -6 21 -2 25 0 15 6 -8 5 -17 7 -21 4 -4 -2 -11 5 -14 17 -5 14 -2
25 6 30 12 7 12 9 0 9 -10 0 -10 6 4 26 9 14 13 29 9 32 -4 4 -9 1 -11 -5 -3
-7 -9 -13 -14 -13 -6 0 -7 4 -4 10 3 5 1 18 -5 29 -7 13 -7 22 0 26 5 3 10 0
10 -7 0 -8 5 -6 11 5 6 9 14 15 20 12 5 -4 9 -1 9 4 0 6 -5 11 -11 11 -6 0 -8
7 -5 16 3 8 2 12 -4 9 -14 -9 -12 6 5 35 17 30 19 44 5 35 -6 -4 -10 5 -10 21
0 25 -1 26 -22 11 -13 -8 -23 -24 -23 -35 0 -11 -4 -24 -8 -28 -4 -5 -5 -1 -1
9 3 10 1 17 -5 17 -6 0 -11 -7 -11 -15 0 -21 -26 -19 -35 3 -6 16 -7 16 -21
-2 -7 -11 -17 -16 -21 -11 -5 4 -2 10 5 12 6 3 12 14 12 24 0 11 4 18 9 15 5
-3 12 1 15 10 8 21 8 26 -2 20 -5 -3 -8 10 -8 29 1 29 4 34 20 29 15 -5 18 -2
14 13 -3 11 1 28 8 38 10 13 11 22 3 31 -8 10 -3 18 23 34 32 20 32 20 10 26
-17 5 -22 12 -18 25 20 65 21 62 -3 49 -13 -6 -25 -10 -27 -7 -3 2 -6 27 -7
56 -2 41 -5 51 -20 51 -10 0 -22 -11 -26 -24 -5 -13 -19 -26 -30 -29 -12 -3
-21 -13 -21 -25 0 -25 -36 -36 -45 -13 -8 21 -7 26 5 27 6 1 15 2 21 3 5 0 8
5 5 10 -3 4 -28 6 -55 3 -27 -2 -65 1 -85 8 -35 11 -40 21 -39 68 1 6 -3 12
-9 12 -5 0 -6 5 -3 11 5 6 12 4 20 -8 13 -17 15 -15 21 14 7 37 20 35 29 -5 3
-15 14 -33 25 -40 18 -11 20 -10 20 14 0 24 1 25 18 8 16 -17 17 -17 21 1 2
14 5 15 12 4 6 -10 9 -3 10 21 0 23 3 29 7 18 7 -18 26 -12 33 11 4 11 9 10
23 -4 17 -17 17 -17 14 0 -2 13 5 18 29 21 25 3 31 1 27 -11 -4 -8 -11 -15
-18 -15 -6 0 2 -12 17 -25 16 -14 33 -23 38 -20 5 4 9 0 9 -7 0 -10 2 -10 8
-1 4 7 18 11 30 8 19 -3 22 -1 16 17 -4 14 -3 18 5 13 7 -4 33 14 64 45 34 34
57 50 69 47 27 -8 21 12 -7 23 -33 13 -33 34 1 27 22 -4 25 -1 21 15 -5 18 -4
18 17 5 14 -9 28 -12 36 -7 8 5 22 2 36 -6 12 -8 27 -13 34 -12 7 2 14 -9 15
-26 5 -38 9 -41 34 -19 12 10 26 19 31 19 6 1 12 3 15 4 7 3 23 7 36 9 8 1 10
14 6 39 -3 20 -3 31 0 24 6 -16 23 -6 23 14 0 9 7 22 15 30 17 17 20 60 5 69
-6 4 -10 -5 -10 -20 0 -16 -4 -24 -11 -19 -6 3 -8 17 -5 29 4 14 1 26 -7 29
-9 5 -9 7 0 12 8 3 11 15 7 30 -5 17 -2 24 9 24 8 0 18 6 20 13 4 10 6 10 6 0
2 -23 16 -13 16 10 0 18 -5 23 -17 19 -10 -2 -18 1 -18 7 0 6 -5 11 -11 11 -6
0 -8 -9 -4 -22 6 -19 5 -21 -6 -10 -7 6 -23 12 -36 12 -26 0 -26 0 -13 34 8
21 6 26 -6 26 -8 0 -12 5 -9 10 3 6 14 10 24 10 10 0 21 9 24 20 3 11 13 20
24 19 11 0 13 -3 5 -6 -10 -4 -10 -8 0 -21 10 -12 10 -16 1 -19 -23 -8 -14
-31 15 -36 20 -4 31 -1 41 13 13 19 14 19 37 -3 13 -12 24 -32 24 -44 0 -13 3
-23 8 -23 4 0 7 35 7 78 0 42 4 76 9 74 11 -4 58 77 51 88 -3 5 -1 10 4 12 6
1 11 23 12 48 2 25 9 51 17 59 11 11 11 15 1 22 -7 4 -16 6 -20 3 -4 -2 -9 5
-12 16 -3 11 -1 22 3 25 14 8 -1 43 -17 41 -8 -1 -23 -20 -32 -41 -13 -31 -19
-36 -24 -22 -3 9 0 23 8 31 19 18 19 22 0 30 -28 10 -105 -45 -105 -76 0 -25
-12 -22 -33 7 -18 25 -18 25 5 34 13 6 18 10 13 10 -6 1 -10 17 -9 37 2 36 14
62 14 30 0 -26 35 -15 36 11 1 26 -23 38 -43 21 -11 -9 -16 -9 -23 2 -4 7 -7
-7 -5 -34 2 -25 -1 -46 -6 -46 -5 0 -9 7 -9 16 0 8 -4 13 -9 10 -4 -3 -6 6 -3
19 3 20 1 24 -12 19 -9 -3 -16 -12 -16 -20 0 -8 -4 -14 -10 -14 -5 0 -10 8
-10 17 0 15 -2 14 -15 -3 -8 -10 -15 -36 -15 -56 0 -20 -5 -40 -11 -44 -8 -5
-10 0 -6 17 5 18 1 28 -13 37 -18 11 -20 9 -20 -18 0 -16 4 -30 9 -30 5 0 7
-9 4 -20 -3 -11 0 -20 6 -20 6 0 11 -9 11 -20 0 -13 -5 -18 -15 -14 -8 4 -12
10 -9 15 3 6 0 17 -7 25 -7 9 -12 29 -11 44 2 21 -3 29 -20 34 -40 10 -47 7
-54 -29 -7 -39 -24 -47 -25 -12 0 21 -1 21 -11 -3 -9 -21 -12 -22 -15 -7 -5
21 -23 23 -23 2 0 -8 -5 -14 -12 -13 -6 2 -16 -14 -21 -35 -6 -25 -14 -37 -22
-33 -8 3 -16 0 -18 -7 -7 -20 -30 8 -29 37 0 14 -4 26 -9 26 -5 0 -9 5 -9 11
0 6 9 8 21 4 18 -6 20 -4 15 17 -6 20 -5 20 4 5 6 -9 8 -27 4 -40 -4 -16 -3
-19 5 -11 13 12 18 75 6 94 -4 7 -2 16 6 21 22 14 33 10 19 -6 -10 -12 -10
-19 -2 -27 9 -9 12 -8 12 6 0 9 4 15 9 12 5 -3 12 6 16 21 4 17 2 29 -7 34 -7
5 -13 23 -13 40 0 19 -6 34 -14 37 -8 3 -11 0 -7 -6 10 -16 -34 -42 -61 -36
-19 5 -23 2 -23 -17 0 -19 2 -21 10 -9 6 9 10 10 10 3 0 -6 3 -18 6 -27 4 -11
0 -16 -14 -16 -19 0 -32 24 -32 60 0 9 19 24 45 34 44 18 51 33 32 64 -12 18
-23 15 -53 -17 -15 -17 -31 -28 -36 -25 -4 3 -8 0 -8 -5 0 -6 5 -11 11 -11 5
0 7 -5 3 -11 -5 -8 -10 -6 -16 5 -10 18 6 71 25 83 6 3 7 1 3 -5 -4 -7 -2 -12
3 -12 6 0 12 6 12 13 2 24 5 33 27 77 12 25 22 39 22 31 0 -8 2 -12 5 -10 7 8
-6 49 -16 49 -5 0 -9 -9 -9 -19 0 -29 -38 -89 -61 -96 -13 -4 -18 -12 -15 -21
3 -8 2 -13 -3 -10 -5 3 -11 -4 -14 -15 -4 -14 -10 -18 -18 -13 -10 6 -10 9 -1
12 15 5 16 32 2 32 -6 0 -15 -10 -20 -22 -5 -13 -9 -18 -9 -12 -1 6 -12 9 -26
6 -31 -5 -23 -22 11 -22 14 0 23 -4 20 -9 -3 -4 -29 -2 -58 6 -89 23 -138 31
-144 22 -3 -5 11 -9 31 -9 20 0 34 -4 31 -9 -3 -4 -16 -8 -28 -7 -13 1 -28 -5
-34 -13 -14 -18 -34 -6 -34 20 0 13 4 18 12 13 8 -5 9 -2 5 10 -4 10 -7 25 -7
34 -1 15 -2 15 -11 -1 -10 -17 -13 -17 -30 12 -10 16 -29 37 -43 46 -13 9 -27
22 -30 30 -4 10 2 11 27 4 18 -5 33 -9 34 -9 1 0 0 -6 -3 -13 -2 -7 2 -21 10
-32 14 -19 15 -19 35 -1 12 11 21 15 21 11 0 -4 9 0 20 10 11 10 20 28 20 41
l0 23 -645 1 -645 0 0 -374z m1102 347 c11 -10 26 -33 34 -51 7 -18 18 -31 23
-28 5 3 15 -2 22 -11 8 -10 9 -14 2 -10 -6 4 -15 2 -18 -4 -4 -5 -14 -8 -22
-5 -8 3 -11 1 -8 -4 3 -6 2 -10 -2 -10 -5 0 -10 -11 -11 -26 -2 -33 -21 -66
-32 -59 -5 3 -11 1 -15 -5 -10 -16 -25 -11 -18 6 8 21 -13 34 -54 34 -31 0
-33 2 -33 38 0 20 -6 48 -13 62 -16 33 -11 74 9 66 8 -3 13 -2 9 3 -14 24 101
27 127 4z m38 -205 c0 -9 4 -8 10 2 9 13 11 13 20 0 5 -8 10 -10 10 -5 0 6 5
3 10 -5 9 -13 10 -13 11 0 0 10 3 8 9 -5 12 -29 12 -95 -1 -95 -5 0 -7 -5 -4
-10 4 -6 10 -8 15 -5 10 6 32 -54 24 -66 -3 -5 0 -9 5 -9 16 0 13 -30 -4 -36
-8 -3 -17 -16 -21 -27 -4 -12 -23 -38 -42 -58 l-34 -37 -43 26 c-37 22 -43 30
-42 59 1 24 3 29 9 18 5 -8 14 -15 19 -15 6 0 8 4 5 9 -4 5 -3 16 0 25 5 13 9
14 20 5 11 -9 15 -8 20 5 3 9 12 16 20 16 8 0 14 7 14 15 0 9 6 18 14 21 8 3
17 12 20 20 3 9 1 12 -4 9 -6 -3 -10 2 -11 12 0 16 -2 15 -16 -4 -9 -13 -26
-23 -39 -23 -27 0 -30 9 -11 29 6 8 8 12 2 9 -14 -7 -40 24 -41 50 -1 24 11
30 19 10 3 -7 6 -3 6 10 1 12 6 22 12 22 6 0 8 9 4 20 -4 11 -2 20 4 20 6 0
11 -6 11 -12z m639 -504 c28 -31 35 -64 10 -49 -9 6 -19 -10 -23 -42 -2 -10
-11 -18 -22 -18 -10 0 -25 -4 -31 -8 -18 -12 -33 0 -33 26 0 16 -3 18 -9 8
-11 -17 -25 3 -17 24 3 8 1 17 -4 20 -6 4 -10 -3 -10 -14 0 -12 -3 -21 -6 -21
-9 0 -34 28 -34 38 0 16 44 30 68 21 40 -15 92 7 62 26 -11 7 -4 25 10 25 4 0
22 -16 39 -36z m-629 -56 c0 -6 6 -6 14 1 11 9 16 6 24 -19 13 -35 6 -60 -15
-60 -12 0 -14 -8 -9 -37 3 -21 6 -43 6 -50 0 -7 6 -10 14 -7 8 3 19 -3 25 -15
14 -25 14 -44 1 -36 -5 3 -10 1 -10 -6 0 -8 -9 -4 -22 8 -13 11 -33 26 -46 32
-19 10 -23 20 -22 54 1 23 1 44 0 47 -1 3 -3 21 -3 40 -2 27 -6 35 -20 34 -17
-2 -17 -1 -2 16 16 18 65 16 65 -2z m-93 -161 c7 2 25 -7 40 -21 15 -15 36
-29 46 -32 11 -3 16 -12 13 -20 -4 -9 -2 -12 5 -8 7 4 9 0 5 -14 -7 -22 19
-56 35 -47 5 4 9 1 9 -5 0 -6 5 -8 10 -5 6 3 14 4 19 1 11 -7 -16 -66 -30 -66
-5 0 -9 -9 -9 -21 0 -15 -5 -19 -16 -15 -8 3 -12 2 -9 -3 3 -5 -5 -13 -17 -17
-15 -4 -25 -1 -35 12 -7 11 -25 32 -40 49 -16 16 -20 23 -10 16 9 -7 17 -10
17 -7 0 4 9 2 19 -4 13 -7 22 -7 26 0 3 5 0 10 -8 10 -8 0 -20 7 -27 15 -7 8
-17 12 -24 8 -8 -4 -8 -3 0 6 13 14 65 18 85 6 11 -7 11 -6 0 9 -12 14 -23 16
-59 11 -25 -4 -51 -9 -58 -12 -9 -3 -14 2 -14 12 0 9 -5 13 -10 10 -12 -7 -80
40 -80 56 0 12 32 8 42 -6 4 -6 8 -2 8 8 0 9 5 17 10 17 6 0 10 9 10 20 0 11
5 20 12 20 9 0 9 3 0 12 -19 19 -14 33 6 16 9 -9 22 -13 29 -11z m-8 -262 c35
-37 42 -50 37 -70 -6 -25 7 -35 19 -15 12 19 22 10 22 -22 0 -18 -3 -35 -8
-38 -4 -3 -9 -12 -11 -20 -2 -8 -9 -21 -15 -28 -15 -16 -17 -48 -3 -57 6 -3 7
1 4 9 -6 14 5 21 29 17 4 0 7 6 7 14 0 20 6 19 30 -5 17 -17 18 -24 8 -45 -13
-29 -32 -23 -22 7 4 14 2 18 -5 14 -6 -4 -11 -14 -11 -21 0 -10 -9 -14 -30
-11 -17 2 -33 0 -36 -5 -10 -17 -34 -9 -34 11 0 11 -7 20 -15 20 -11 0 -13 8
-8 33 3 17 8 34 10 37 8 9 28 6 36 -5 5 -5 5 0 2 13 -4 14 -2 22 6 22 8 0 8 4
-1 15 -7 9 -20 13 -28 10 -10 -4 -12 0 -8 12 6 14 5 15 -5 6 -9 -9 -18 -8 -40
8 -17 12 -30 16 -34 9 -4 -6 -12 -4 -22 5 -14 15 -13 18 6 39 11 12 21 28 21
36 0 17 29 50 44 50 6 0 31 -21 55 -45z m251 -255 c0 -13 -7 -20 -18 -20 -10
0 -22 -3 -25 -7 -11 -10 51 -33 89 -33 32 0 59 -20 36 -28 -6 -2 -8 -11 -5
-20 3 -9 3 -14 -2 -10 -10 9 -32 -14 -45 -47 -12 -31 -34 -23 -24 8 6 21 6 21
-14 -1 -12 -14 -18 -30 -15 -39 4 -11 2 -14 -5 -9 -7 4 -12 14 -12 22 0 8 -4
14 -9 14 -14 0 -21 44 -12 75 5 17 10 22 10 13 1 -25 21 -22 21 2 0 11 -7 23
-15 26 -21 8 -19 22 8 50 27 29 37 30 37 4z"/>
<path d="M2525 6267 c52 -21 75 -37 75 -55 0 -13 2 -14 9 -3 14 22 51 4 51
-25 0 -13 -6 -24 -12 -24 -19 0 -62 -80 -50 -92 6 -6 15 -7 21 -3 15 8 61 100
61 119 0 12 4 13 28 1 15 -7 48 -16 75 -20 44 -6 48 -5 57 20 7 17 7 33 0 45
-5 10 -7 26 -4 34 5 14 -14 16 -167 15 -144 0 -169 -3 -144 -12z"/>
<path d="M2890 6259 c0 -13 4 -18 13 -13 8 6 8 3 -1 -9 -8 -9 -19 -15 -25 -14
-7 1 -12 -7 -12 -18 0 -11 -3 -24 -6 -30 -3 -5 -5 -27 -4 -47 1 -20 -2 -35 -7
-32 -4 3 -13 -7 -19 -23 -9 -25 -7 -30 18 -50 19 -16 23 -23 13 -24 -77 -7
-78 -8 -50 -54 20 -32 25 -35 55 -29 27 5 35 2 44 -15 7 -12 19 -21 29 -21 9
0 23 -9 30 -20 15 -24 38 -26 50 -3 13 22 42 10 44 -19 4 -53 -2 -82 -20 -99
-15 -13 -22 -15 -31 -6 -6 6 -11 9 -12 6 -8 -60 -6 -75 13 -90 17 -13 19 -22
13 -58 -9 -53 -24 -49 -46 13 l-16 48 -23 -48 c-13 -27 -33 -57 -43 -66 -13
-12 -15 -18 -7 -18 10 0 9 -5 -3 -18 -10 -10 -14 -22 -10 -25 3 -4 -1 -7 -11
-7 -9 0 -15 4 -12 8 9 14 -55 72 -79 72 -12 0 -25 3 -29 8 -4 4 -12 8 -17 8
-5 1 -13 2 -19 3 -5 0 -16 16 -25 34 -16 35 -71 65 -78 43 -5 -15 -37 11 -37
31 0 8 -4 12 -9 9 -5 -3 -11 8 -15 24 -3 17 -10 30 -16 30 -7 0 -9 -8 -5 -20
9 -27 -9 -25 -23 3 -6 13 -11 16 -11 7 -2 -35 -28 28 -30 70 0 25 -6 47 -12
49 -6 2 -14 14 -19 27 -6 15 -15 22 -24 18 -12 -5 -13 -11 -6 -24 7 -13 7 -21
0 -25 -5 -3 -10 2 -11 12 -1 19 0 20 -21 -37 -8 -20 -11 -22 -19 -10 -8 11 -9
10 -4 -7 7 -25 -4 -30 -23 -11 -7 7 -12 8 -13 3 -5 -71 0 -92 16 -65 11 18 54
11 65 -10 9 -16 8 -20 -7 -21 -11 0 -13 -3 -5 -6 18 -7 15 -23 -6 -23 -10 0
-22 -13 -30 -32 -7 -18 -17 -40 -21 -48 -14 -26 -22 -142 -25 -370 -2 -118 -9
-227 -14 -241 -6 -15 -7 -30 -2 -35 10 -10 12 -86 6 -214 -2 -47 -1 -102 3
-124 7 -41 -9 -200 -21 -212 -11 -10 -10 -44 1 -44 5 0 12 -13 16 -30 8 -34
12 -35 60 -16 35 15 44 29 25 41 -12 8 -13 77 -2 91 5 5 17 34 26 66 10 31 26
64 36 73 11 10 17 21 15 25 -3 4 3 7 13 6 10 0 16 6 16 16 -1 10 2 15 7 12 5
-3 12 2 15 10 7 18 118 76 146 76 14 0 18 -8 19 -37 l1 -38 15 35 c8 19 20 38
26 42 13 8 87 -28 104 -51 7 -10 12 -11 13 -4 0 6 -5 15 -11 19 -6 3 -8 17 -5
29 5 20 3 22 -17 17 -21 -5 -21 -5 -4 12 9 10 17 22 17 27 0 5 9 9 20 9 13 0
25 12 35 36 18 45 19 93 1 159 -13 48 -14 49 -24 25 -6 -14 -11 -21 -11 -16
-1 5 -7 3 -15 -3 -25 -21 -38 18 -19 57 9 18 13 35 10 38 -12 12 -66 -8 -72
-26 -7 -23 -43 -36 -58 -21 -18 18 31 105 61 109 17 3 22 8 17 20 -13 34 -25
128 -19 154 11 52 64 46 64 -7 0 -35 35 -154 50 -169 5 -5 15 -2 24 7 19 18
55 11 58 -12 1 -9 2 -50 3 -92 2 -44 10 -97 20 -122 13 -35 14 -49 6 -66 -7
-12 -9 -21 -5 -21 4 0 -1 -9 -12 -21 -12 -13 -27 -19 -42 -16 -23 4 -24 2 -18
-32 3 -20 6 -47 6 -61 0 -18 3 -21 9 -11 6 9 10 -1 13 -30 3 -24 2 -48 -3 -53
-4 -5 8 -38 27 -73 35 -66 42 -111 24 -157 -8 -21 -6 -27 10 -36 28 -15 38
-12 16 5 -11 8 -16 15 -10 15 5 0 9 31 9 70 0 38 -3 62 -7 52 -5 -11 -7 -7 -5
13 1 20 -2 29 -10 27 -15 -2 -17 14 -3 23 6 3 10 11 10 17 0 7 -4 7 -13 0 -10
-8 -13 -6 -13 8 0 10 4 16 8 14 4 -3 8 6 8 20 0 14 -5 28 -11 31 -7 5 -5 15 5
31 9 13 16 30 16 39 0 8 6 15 13 15 9 0 9 2 0 8 -9 6 -9 18 -2 47 6 22 12 50
13 62 4 41 16 37 16 -5 0 -22 4 -44 10 -47 5 -3 8 -21 5 -40 -2 -19 1 -40 8
-47 18 -20 20 -55 3 -61 -9 -4 -13 -13 -10 -22 4 -8 -2 -27 -12 -42 -11 -18
-18 -49 -19 -91 l-2 -64 17 32 17 32 13 -46 c7 -25 14 -67 15 -93 2 -27 4 -50
5 -53 1 -3 2 -9 1 -13 -1 -5 3 -6 9 -2 5 3 10 1 10 -4 0 -6 5 -11 11 -11 6 0
9 6 6 13 -6 17 19 51 32 42 7 -3 8 0 5 9 -3 9 -11 14 -17 13 -14 -3 -17 36 -7
93 5 24 4 52 0 61 -6 11 -2 28 11 53 24 45 21 60 -11 61 -43 0 -67 87 -36 130
13 19 16 27 16 43 0 4 8 -5 18 -21 10 -15 22 -24 27 -20 4 5 5 -4 1 -19 -3
-15 -2 -30 4 -33 5 -3 10 -12 10 -18 0 -7 -4 -6 -10 3 -5 8 -10 11 -10 5 0
-16 17 -38 22 -29 3 5 3 52 1 104 -2 52 -4 111 -5 130 -1 59 14 170 23 170 5
0 4 10 0 23 -5 12 -15 20 -23 19 -57 -15 -58 -15 -59 35 0 27 -2 62 -3 78 -2
17 -1 34 2 38 7 13 42 -24 42 -45 0 -11 5 -16 10 -13 6 4 10 -5 10 -21 0 -15
3 -24 8 -20 4 4 8 60 8 124 1 65 3 133 5 152 2 19 -1 52 -8 72 -11 34 -11 54
1 113 2 11 1 29 -3 39 -9 24 9 66 29 67 10 0 11 2 3 6 -7 2 -13 11 -13 19 0 8
-4 14 -10 14 -15 0 -12 50 4 56 8 3 17 21 21 40 6 36 9 37 63 17 6 -3 12 0 12
7 0 7 10 0 22 -15 20 -26 20 -28 3 -37 -14 -8 -15 -12 -4 -19 11 -7 10 -9 -3
-9 -15 0 -17 -7 -11 -47 7 -57 20 -86 35 -77 5 4 13 1 17 -5 5 -7 14 -5 28 8
23 21 33 18 33 -10 0 -17 27 -39 49 -39 5 0 17 16 26 35 22 45 63 85 87 85 15
0 18 5 13 21 -7 20 -4 21 28 17 35 -4 46 7 47 45 0 13 -41 8 -56 -7 -16 -17
-94 -19 -94 -3 0 7 -4 7 -12 -1 -19 -19 -30 -14 -26 10 5 35 47 40 80 10 15
-14 31 -22 35 -18 4 4 1 11 -7 17 -12 8 -9 15 20 39 19 16 41 30 47 30 7 0 19
13 27 29 14 27 14 29 -12 40 -15 7 -40 20 -57 28 -26 13 -30 13 -40 0 -8 -11
-29 -15 -81 -13 -90 3 -137 34 -99 66 8 7 15 19 15 26 0 8 5 14 10 14 6 0 10
-4 10 -10 0 -5 5 -10 10 -10 6 0 10 7 10 15 0 8 5 15 11 15 5 0 9 -8 7 -17 -3
-23 9 -43 25 -38 7 2 24 6 38 9 28 6 46 46 32 69 -23 37 10 115 60 139 31 15
29 15 -75 16 -92 2 -109 -1 -117 -16 -8 -13 -10 -14 -11 -2 0 12 -2 12 -9 2
-7 -11 -9 -11 -14 2 -5 13 -22 16 -89 15 -46 0 -77 -3 -70 -6 6 -2 11 -14 11
-26 -1 -17 -2 -18 -6 -4 -2 9 -8 17 -13 17 -5 0 -7 -7 -3 -16 4 -12 2 -15 -8
-12 -8 2 -15 14 -17 25 -3 20 -10 21 -108 21 l-104 0 0 -29 c0 -18 -7 -32 -19
-39 -27 -14 -38 -13 -19 3 9 6 18 24 20 40 5 23 2 27 -18 27 -18 0 -24 -6 -24
-21z m54 -65 c18 -7 21 -43 7 -91 -5 -17 -6 -34 -3 -38 4 -4 7 -10 8 -13 0 -4
4 -15 8 -24 5 -10 6 -25 2 -33 -3 -8 0 -26 6 -40 9 -19 7 -27 -7 -41 -14 -15
-18 -15 -26 -3 -5 9 -4 18 4 24 25 20 16 32 -23 31 -43 -1 -56 6 -44 26 4 7 9
33 10 58 2 66 24 150 39 150 2 0 10 -3 19 -6z m63 -774 c-3 -11 -1 -20 3 -20
13 0 17 -32 8 -57 -4 -14 -4 -23 3 -23 6 0 7 -5 4 -10 -4 -6 -2 -17 5 -25 8
-9 8 -15 0 -20 -8 -5 -8 -11 1 -21 9 -11 9 -14 -1 -14 -8 0 -10 -12 -5 -40 8
-49 -7 -75 -35 -60 -10 5 -20 22 -23 37 -3 16 -10 45 -16 66 -36 125 -36 138
8 157 16 6 31 20 34 31 3 10 8 19 12 19 4 0 5 -9 2 -20z"/>
<path d="M4542 6259 c-16 -24 -13 -29 19 -32 19 -1 69 -39 69 -52 0 -2 -12
-16 -27 -30 -25 -22 -26 -25 -8 -25 11 0 32 7 47 14 16 9 30 11 33 5 4 -5 15
-9 26 -9 11 0 17 -4 14 -10 -10 -17 5 -11 28 10 20 19 22 20 29 3 5 -15 7 -14
7 5 1 13 5 21 10 18 11 -7 20 39 14 65 -3 10 -10 16 -15 13 -6 -4 -8 2 -3 15
5 15 2 21 -9 21 -9 0 -16 -4 -16 -8 0 -5 -8 -19 -19 -30 -21 -25 -61 -29 -61
-7 0 8 9 15 21 15 11 0 18 4 15 9 -3 4 -25 8 -48 8 -23 0 -44 5 -46 12 -7 20
-66 13 -80 -10z"/>
<path d="M4893 6273 c21 -5 23 -23 3 -23 -8 0 -17 -8 -20 -17 -8 -28 -4 -123
6 -123 13 0 70 31 86 46 10 11 17 11 32 2 10 -7 16 -16 13 -21 -3 -5 0 -12 6
-16 6 -4 13 -31 14 -59 1 -36 6 -52 16 -52 17 0 54 47 58 74 2 10 8 25 13 31
9 11 3 55 -9 55 -3 0 -12 9 -18 19 -11 17 -9 22 18 35 29 15 31 14 36 -4 3
-11 9 -20 14 -20 5 0 9 -15 9 -34 0 -20 6 -36 14 -39 8 -3 17 -21 21 -39 4
-18 12 -39 17 -45 8 -10 5 -13 -8 -13 -15 0 -16 -2 -5 -9 38 -24 68 34 36 69
-18 20 -21 84 -7 121 6 15 8 36 5 47 -5 20 -12 21 -187 20 -99 0 -173 -2 -163
-5z"/>
<path d="M5476 6271 c-4 -5 0 -32 7 -59 14 -57 87 -143 150 -178 10 -6 25 -26
35 -45 12 -24 25 -35 45 -37 15 -2 27 -7 27 -11 0 -5 11 -20 25 -35 31 -34 32
-44 1 -39 -25 5 -101 -51 -90 -68 9 -15 -5 -10 -52 17 -31 18 -44 32 -44 48 0
13 -9 31 -20 41 -20 18 -20 17 -20 -14 0 -24 -9 -39 -35 -62 -41 -37 -45 -66
-11 -102 20 -21 22 -28 11 -37 -9 -8 -15 -8 -20 0 -3 5 -15 10 -25 10 -22 0
-39 -22 -21 -28 17 -6 61 -55 61 -68 0 -14 28 -26 41 -18 5 3 9 -10 9 -28 0
-18 7 -46 15 -62 8 -15 15 -33 15 -38 0 -5 11 -33 25 -63 21 -43 34 -58 70
-75 24 -12 50 -20 57 -19 14 2 23 -1 113 -37 33 -13 71 -24 86 -24 14 0 30 -5
37 -12 19 -19 54 -20 73 -2 17 16 19 15 25 -2 3 -11 10 -30 15 -43 14 -34 -10
-58 -38 -40 -28 17 -67 -8 -50 -32 7 -8 20 -18 30 -22 11 -4 17 -17 17 -37 0
-23 7 -35 33 -50 17 -11 38 -18 45 -15 9 3 12 -1 10 -12 -2 -11 -14 -18 -32
-20 -31 -2 -86 21 -86 37 0 6 -8 10 -18 10 -23 0 -42 19 -42 42 0 29 -26 21
-40 -12 -15 -37 -33 -38 -49 -4 -8 18 -17 24 -27 20 -26 -10 -44 13 -44 58 0
30 -5 44 -19 53 -16 10 -20 9 -25 -3 -3 -8 -10 -13 -15 -10 -5 3 -11 -1 -15
-9 -3 -8 -12 -15 -20 -15 -18 0 -81 110 -68 119 17 11 33 49 22 56 -15 9 -30
-4 -30 -26 0 -11 -6 -27 -12 -34 -35 -39 -72 -96 -61 -94 23 4 33 -4 33 -25 0
-25 28 -65 88 -125 33 -33 34 -35 20 -60 -20 -34 -31 -81 -19 -81 14 0 28 23
36 60 7 33 8 33 16 12 8 -21 10 -22 31 -8 15 10 28 12 37 6 9 -5 23 -3 38 7
21 14 25 14 42 -1 9 -9 25 -16 34 -16 26 0 20 -23 -11 -50 -16 -14 -31 -31
-33 -38 -9 -26 -39 -1 -39 32 0 43 -7 48 -36 29 -20 -13 -27 -13 -39 -3 -14
12 -16 8 -13 -24 1 -23 -3 -40 -11 -46 -8 -4 -14 -22 -13 -39 0 -17 -5 -32
-11 -32 -23 -2 -42 3 -49 14 -4 6 -10 -1 -14 -18 -4 -16 -2 -36 5 -46 6 -10
11 -27 11 -36 0 -15 2 -16 10 -3 8 12 10 8 11 -15 1 -16 0 -42 -1 -57 -1 -18
8 -36 23 -52 14 -14 23 -27 20 -29 -2 -3 13 -15 33 -28 31 -19 41 -21 66 -11
24 9 37 7 71 -8 23 -10 57 -24 75 -31 43 -16 39 -42 -8 -49 -19 -4 -45 -12
-57 -18 -26 -14 -36 -15 -28 -3 7 12 -22 41 -40 41 -27 0 -45 -13 -45 -32 0
-10 -4 -16 -10 -13 -21 13 -9 -9 20 -36 21 -20 40 -29 64 -29 20 0 36 -6 39
-14 7 -17 35 -15 47 4 5 7 15 10 26 6 11 -4 25 1 40 15 29 27 64 20 82 -18 17
-38 15 -51 -10 -64 -23 -12 -38 -28 -38 -42 0 -4 9 -2 20 5 16 10 24 10 39 1
16 -10 22 -8 35 12 l16 24 42 -22 c62 -33 65 -45 29 -99 -33 -48 -40 -78 -18
-78 7 0 27 -13 45 -29 l32 -30 0 35 c0 27 -4 34 -20 34 -26 0 -26 12 0 28 19
11 20 23 20 207 l0 195 -29 0 c-61 0 -66 59 -5 70 l29 5 3 222 2 223 -30 -6
c-30 -7 -89 11 -102 30 -4 6 -8 23 -8 37 0 15 -7 32 -15 39 -23 19 -15 54 13
58 32 5 80 -16 93 -39 5 -10 18 -23 29 -29 18 -10 20 -7 20 25 0 31 -4 37 -30
46 -16 6 -30 17 -30 25 0 9 11 14 30 14 l30 0 0 410 c0 355 -2 411 -15 416 -8
4 -12 10 -9 15 3 5 0 9 -6 9 -6 0 -8 5 -5 11 4 6 13 8 21 5 11 -4 14 10 14 71
l0 76 -46 -6 c-68 -7 -81 -1 -88 44 -3 22 -14 42 -24 48 -19 10 -362 16 -362
6 0 -11 23 -49 37 -64 19 -19 12 -42 -15 -52 -20 -8 -30 -3 -59 26 -19 19 -39
33 -43 30 -14 -9 -62 14 -54 26 4 7 -1 10 -12 7 -11 -2 -20 -13 -22 -26 -2
-12 -12 -27 -22 -32 -15 -8 -22 -6 -32 12 -12 23 -14 29 -16 61 -2 18 -36 24
-46 8z"/>
<path d="M3967 6120 c-8 -71 -19 -96 -48 -105 -28 -9 -79 13 -79 35 0 25 -25
32 -57 15 -35 -19 -47 -19 -63 0 -9 11 -10 18 -1 29 9 11 6 15 -13 18 -18 4
-23 1 -18 -10 3 -8 1 -13 -4 -10 -7 5 -9 -20 -5 -64 1 -5 8 -8 16 -8 8 0 15
-4 15 -10 0 -14 27 -12 34 3 3 6 3 0 1 -15 -2 -15 1 -30 6 -33 16 -11 10 -35
-10 -35 -10 0 -22 -7 -25 -16 -5 -14 0 -15 39 -10 60 9 81 1 94 -36 13 -35 7
-48 -20 -48 -22 0 -66 -36 -56 -46 4 -4 2 -13 -4 -21 -9 -10 -8 -13 4 -13 9 0
26 14 39 30 16 23 30 30 55 30 28 0 35 -5 48 -36 21 -50 19 -80 -6 -103 -21
-19 -20 -61 2 -61 5 0 8 -34 5 -80 -4 -70 -1 -84 18 -112 21 -32 56 -40 64
-17 2 5 10 9 19 9 11 0 13 7 9 28 -20 99 -20 95 28 149 l46 50 -13 50 c-15 57
-7 102 23 120 16 11 27 10 60 -3 46 -18 60 -13 42 16 -7 11 -12 38 -12 60 0
22 -3 40 -7 41 -21 2 -57 10 -61 13 -2 3 2 14 8 26 11 20 10 21 -10 15 -22 -7
-22 -6 -7 15 8 12 13 28 10 35 -2 8 1 23 7 35 9 16 9 29 2 44 -6 11 -13 29
-16 40 -6 16 -9 17 -29 4 -23 -15 -57 -13 -57 3 0 5 -8 9 -17 9 -9 0 -24 7
-33 15 -16 14 -18 11 -23 -45z"/>
<path d="M4705 5941 c-3 -6 -15 -11 -25 -11 -10 0 -28 -12 -39 -26 -13 -17
-26 -24 -36 -20 -9 3 -13 2 -10 -3 9 -16 -16 -24 -67 -22 -47 1 -48 1 -48 -29
0 -19 5 -30 13 -29 41 5 48 -1 45 -41 -3 -42 -7 -47 -25 -29 -7 7 -15 5 -27
-6 -15 -15 -16 -12 -16 42 l0 59 -47 -2 c-27 -1 -51 -2 -54 -3 -13 -3 -49 -43
-48 -54 0 -9 2 -9 6 1 6 16 23 16 23 -1 0 -11 17 -13 62 -8 4 1 10 11 14 24
l7 22 7 -25 c19 -72 20 -90 2 -90 -16 -1 -16 -1 1 -11 23 -14 22 -29 -4 -29
-18 0 -19 -2 -9 -15 16 -19 37 -19 56 0 15 15 57 15 122 0 22 -5 32 -13 32
-26 0 -19 38 -65 46 -56 2 2 10 27 16 55 l13 52 47 0 c32 0 48 -4 48 -12 1
-25 30 67 30 95 0 15 -7 30 -15 33 -8 4 -12 10 -9 15 3 6 1 16 -6 24 -7 9 -8
15 0 20 17 11 12 38 -6 31 -12 -5 -15 -2 -10 9 3 9 2 13 -3 10 -5 -3 -13 0
-16 6 -4 5 -13 8 -20 5 -9 -3 -15 4 -17 21 -3 28 -22 41 -33 24z"/>
<path d="M1790 4930 c0 -6 -7 -10 -16 -10 -12 0 -15 -6 -10 -24 4 -16 1 -26
-9 -30 -8 -3 -15 -14 -15 -25 0 -11 -5 -23 -12 -27 -8 -5 -9 5 -5 37 4 33 3
39 -4 26 -8 -14 -14 -15 -24 -7 -10 9 -16 3 -26 -24 -10 -27 -19 -36 -36 -36
-13 0 -23 -4 -23 -8 0 -9 12 -11 63 -13 15 0 27 -6 27 -14 0 -7 9 -23 20 -36
18 -23 19 -23 20 -4 0 11 -7 31 -16 43 -14 20 -14 22 0 22 9 0 16 -9 16 -19 0
-11 5 -23 10 -26 6 -3 10 0 10 7 0 7 7 2 16 -10 18 -26 34 -29 34 -6 0 10 6
14 14 11 8 -3 17 1 20 9 8 22 7 26 -4 19 -5 -3 -10 -1 -10 4 0 6 5 11 12 11 9
0 9 3 0 12 -17 17 -15 26 6 30 9 2 23 -3 30 -12 12 -13 13 -12 8 10 -3 15 1
31 11 42 10 11 12 18 5 18 -7 0 -12 -4 -12 -10 0 -20 -19 -10 -23 13 -4 19 -4
18 -6 -5 -1 -26 -21 -41 -21 -17 0 7 -11 22 -25 35 -14 13 -25 19 -25 14z"/>
<path d="M7 4763 c-3 -5 -5 -64 -5 -133 1 -126 2 -130 45 -175 31 -31 29 -42
-11 -56 -19 -7 -33 -16 -30 -21 9 -14 30 -9 54 12 17 14 21 26 16 45 -5 21 -3
25 16 25 30 0 52 15 44 29 -11 17 5 13 26 -6 17 -15 18 -15 12 18 -4 19 -13
41 -21 49 -12 13 -13 13 -7 -2 3 -10 2 -18 -2 -18 -12 0 -58 49 -60 64 -1 6
-6 20 -10 30 -5 14 -4 17 4 12 7 -4 12 -3 12 2 0 6 -7 12 -15 16 -8 3 -15 17
-15 31 0 20 -5 25 -25 25 -22 0 -24 3 -16 18 10 18 -2 52 -12 35z"/>
<path d="M2836 4302 c-22 -33 -35 -42 -58 -42 -16 0 -45 -7 -65 -15 -20 -9
-44 -13 -54 -10 -10 4 -27 1 -39 -5 -15 -8 -27 -7 -49 5 -17 8 -46 15 -65 15
-30 0 -39 6 -61 37 -16 24 -25 31 -25 20 0 -9 -6 -17 -12 -17 -7 -1 -4 -6 7
-13 25 -15 33 -57 11 -57 -8 0 -19 6 -23 13 -18 31 -118 41 -106 11 3 -8 1
-14 -5 -14 -6 0 -13 6 -15 13 -3 6 -6 8 -6 2 -1 -5 13 -24 29 -42 17 -18 30
-35 30 -39 0 -10 -67 63 -72 78 -2 6 -14 -6 -27 -27 -22 -39 -16 -70 9 -41 11
14 15 13 31 -8 24 -31 24 -35 -3 -28 -22 5 -22 5 -5 -21 24 -37 21 -41 -12
-18 -31 22 -76 28 -86 11 -4 -6 -22 -17 -40 -25 -32 -13 -86 -61 -128 -114
-18 -23 -19 -44 -1 -86 7 -18 6 -18 -9 -6 -14 11 -17 11 -17 0 0 -8 7 -23 15
-33 8 -11 15 -27 15 -35 0 -14 -1 -14 -10 -1 -6 9 -10 11 -10 3 0 -7 -7 -10
-15 -7 -9 4 -15 0 -15 -10 0 -21 -19 -20 -26 2 -3 9 -10 26 -14 37 -5 11 -11
27 -13 35 -3 9 -7 4 -12 -14 -11 -42 5 -80 36 -84 15 -2 36 -14 49 -27 l22
-23 -32 -7 c-48 -10 -60 -38 -49 -114 5 -36 11 -66 12 -68 2 -1 28 19 58 46
31 27 84 65 120 85 36 19 74 44 86 55 19 18 23 18 34 5 17 -21 20 -64 5 -99
-32 -74 -63 -265 -39 -242 3 4 11 3 17 -2 6 -4 38 -11 71 -15 33 -3 110 -18
172 -32 87 -21 124 -25 167 -20 55 7 56 8 56 40 0 45 16 56 83 56 l58 0 -5
-45 c-4 -40 -2 -45 17 -49 12 -2 45 -9 72 -14 28 -6 68 -8 90 -6 22 3 90 11
150 18 108 12 125 10 125 -19 0 -6 -3 -5 -8 1 -5 8 -35 7 -106 -2 -154 -20
-149 -17 -144 -69 3 -24 3 -47 -1 -52 -3 -4 -24 -9 -46 -9 -70 -2 -115 -9
-115 -16 0 -5 -9 -8 -20 -8 -11 0 -20 -7 -20 -15 0 -8 -5 -15 -11 -15 -6 0 -8
10 -5 23 4 15 2 13 -6 -5 -13 -31 -42 -40 -31 -10 4 11 -1 9 -16 -8 -17 -19
-21 -20 -17 -7 4 12 2 17 -6 15 -7 -3 -14 -10 -14 -16 -1 -7 -2 -20 -3 -29 -2
-17 -2 -17 -15 0 -10 13 -16 15 -21 6 -4 -6 -1 -15 6 -20 11 -7 9 -9 -6 -10
-11 0 -14 -3 -7 -6 13 -5 16 -43 6 -80 -4 -13 -10 -20 -15 -17 -5 3 -6 10 -3
16 4 7 2 8 -4 4 -7 -4 -14 3 -18 19 -7 27 -39 46 -84 49 -27 1 -29 7 -46 197
l-7 76 -91 21 c-104 24 -166 33 -303 44 -7 1 -13 5 -13 10 0 4 -7 8 -15 8 -8
0 -19 15 -24 33 l-9 32 -1 -29 c-1 -24 -3 -27 -16 -16 -8 7 -16 9 -17 4 0 -5
-4 11 -7 36 l-6 45 -40 -2 c-22 -1 -69 -6 -105 -11 -68 -10 -94 -7 -84 10 6
10 -23 48 -38 48 -15 0 -8 -43 10 -57 15 -13 15 -14 0 -9 -17 5 -17 5 -1 -79
6 -31 13 -41 31 -43 12 -2 22 -10 22 -17 0 -19 14 -26 58 -31 20 -3 46 -8 57
-11 11 -4 24 -7 30 -8 5 0 14 -10 20 -22 8 -16 15 -19 22 -12 7 7 17 7 32 -3
19 -11 24 -11 34 3 15 20 39 12 86 -28 l34 -29 -12 -109 -11 -109 31 -38 c23
-29 28 -44 23 -61 -10 -28 -11 -33 -13 -56 0 -11 -10 -23 -22 -26 -11 -4 -18
-12 -16 -18 2 -6 -7 -21 -20 -33 -24 -22 -31 -40 -11 -28 7 5 9 0 6 -14 -5
-16 0 -23 22 -30 24 -9 29 -7 44 19 17 28 36 39 36 19 0 -5 -12 -65 -26 -132
-29 -134 -29 -209 0 -338 8 -36 20 -92 27 -125 6 -33 22 -106 35 -163 14 -57
27 -131 30 -165 2 -34 7 -77 9 -95 3 -25 -2 -39 -18 -55 -13 -12 -28 -35 -35
-50 -10 -23 -9 -29 3 -33 15 -6 45 17 45 35 0 6 5 11 10 11 21 0 4 -34 -35
-73 -25 -24 -33 -36 -20 -32 11 4 34 9 50 11 l30 4 -32 -12 c-41 -17 -51 -27
-34 -37 11 -7 11 -12 0 -30 -17 -27 -29 -27 -22 -1 3 11 0 20 -6 20 -6 0 -13
-10 -16 -23 -8 -31 30 -97 56 -97 10 0 18 -6 17 -12 -2 -8 9 -14 25 -16 15 -2
27 -8 27 -13 0 -14 28 -11 33 4 4 9 6 8 6 -2 1 -9 5 -10 14 -4 6 6 31 13 55
16 32 4 42 2 42 -9 0 -8 9 -14 20 -14 13 0 20 7 20 20 0 11 7 20 15 20 8 0 16
6 16 13 1 6 7 -22 15 -63 7 -44 14 -172 15 -310 1 -129 4 -216 6 -192 2 23 8
42 14 42 11 0 10 -124 -1 -160 -8 -25 -8 -25 -10 5 -1 17 -2 35 -1 40 1 14
-219 12 -245 -2 -12 -7 -25 -8 -35 -2 -7 5 -18 9 -24 9 -5 -1 -2 -5 8 -11 21
-12 22 -29 2 -29 -8 0 -15 -4 -15 -9 0 -23 -33 -41 -73 -40 -40 1 -41 1 -14
11 15 5 25 14 21 19 -3 5 -10 7 -15 4 -5 -4 -9 -2 -9 2 0 12 -134 -1 -189 -18
-39 -11 -45 -11 -56 4 -7 10 -25 17 -41 16 l-29 -1 30 -10 c42 -16 59 -34 39
-42 -9 -3 -24 -6 -35 -6 -11 0 -38 -9 -62 -19 -46 -22 -164 -32 -171 -16 -3 6
-11 2 -20 -8 -16 -21 -96 -36 -96 -19 0 17 -121 2 -156 -19 -17 -11 -42 -19
-55 -19 -21 1 -20 3 9 15 19 8 31 19 27 25 -5 8 -11 8 -20 0 -8 -7 -19 -9 -24
-6 -5 4 -12 2 -16 -4 -3 -5 -16 -10 -28 -9 -12 0 -16 3 -9 6 6 2 12 9 12 14 0
14 -28 11 -33 -3 -4 -9 -6 -9 -6 -2 -1 8 -12 9 -35 4 -19 -4 -37 -5 -40 -2 -4
3 -6 0 -6 -6 0 -7 -11 -12 -24 -12 -34 0 -56 -10 -56 -25 0 -8 -9 -10 -27 -7
-21 4 -25 2 -20 -11 4 -10 -3 -19 -23 -27 -16 -6 -37 -21 -47 -32 -18 -21 -18
-21 7 -8 14 7 32 19 41 27 22 18 52 7 40 -15 -10 -19 -11 -23 -11 -51 0 -11
-7 -26 -15 -35 -10 -9 -11 -17 -5 -21 6 -4 7 -11 4 -17 -4 -7 -9 -6 -15 3 -6
10 -14 7 -34 -13 l-26 -26 22 -15 c21 -15 21 -15 1 -26 -20 -11 -52 -6 -52 8
0 4 5 12 12 19 9 9 9 12 0 12 -6 0 -9 7 -6 15 4 8 10 12 15 9 5 -3 6 2 2 12
-5 14 -7 14 -18 -5 -6 -12 -13 -20 -16 -19 -2 2 -1 -1 3 -6 10 -13 -14 -45
-30 -39 -11 5 -11 7 0 14 9 6 6 8 -9 7 -12 -1 -19 -7 -16 -14 5 -13 -34 -30
-44 -20 -4 3 1 6 10 6 10 0 17 6 17 13 0 23 -12 27 -29 9 -9 -9 -22 -18 -28
-19 -7 -2 -22 -12 -34 -24 -11 -11 -27 -18 -35 -15 -8 3 -14 1 -14 -4 0 -13
37 -13 45 0 3 6 13 10 21 10 25 0 6 -18 -26 -25 -23 -5 -37 -1 -58 17 l-28 23
16 43 c14 36 18 41 29 29 12 -15 51 -12 51 4 0 5 -8 6 -18 2 -9 -3 -14 -3 -10
1 3 4 21 10 40 13 18 3 36 10 39 15 4 7 16 3 30 -11 12 -11 25 -18 28 -16 2 3
-4 12 -16 20 -27 19 -37 55 -15 55 15 0 15 2 2 10 -13 9 -13 10 0 11 8 1 21 1
29 0 7 -2 10 2 6 9 -4 6 -17 9 -30 6 -16 -4 -25 -1 -29 11 -6 15 -8 15 -16 3
-9 -13 -10 -13 -10 0 -1 11 -3 11 -11 -3 -8 -14 -7 -21 4 -30 21 -18 28 -44
11 -44 -8 0 -13 6 -10 14 6 15 -10 18 -19 3 -10 -17 -24 -11 -22 9 0 10 6 17
12 15 5 -2 10 9 11 26 1 16 -2 30 -5 30 -4 0 -8 11 -9 24 -1 20 2 23 21 19 21
-4 22 -4 3 11 -11 9 -26 16 -34 16 -8 0 -10 5 -6 13 5 8 2 8 -9 -2 -20 -16
-22 -9 -5 18 6 11 19 16 29 14 11 -3 16 -9 13 -14 -3 -5 2 -9 10 -9 17 0 17
17 1 36 -7 9 -12 9 -17 0 -6 -8 -8 -8 -8 1 0 7 -7 10 -15 7 -19 -8 -19 10 0
26 8 7 25 10 40 6 18 -5 25 -2 25 9 0 21 36 55 57 54 13 0 14 -2 4 -6 -7 -3
-22 -14 -32 -24 -18 -18 -18 -22 -4 -49 9 -17 11 -30 5 -30 -13 0 -13 -37 1
-45 6 -4 9 0 7 10 -2 10 4 21 12 25 8 4 25 12 37 18 12 7 29 9 38 6 10 -4 15
0 15 10 0 18 -35 21 -74 6 -14 -5 -26 -6 -26 -1 0 12 55 33 85 33 14 0 25 5
25 10 0 5 5 6 11 2 7 -4 10 -1 7 7 -3 8 -15 13 -27 11 -12 -1 -29 5 -37 13
-14 13 -13 15 6 15 17 0 21 5 17 19 -3 11 1 22 8 24 13 6 48 -29 41 -41 -9
-15 20 -29 43 -21 28 11 17 32 -12 24 -19 -5 -19 -4 3 9 18 10 29 11 37 4 19
-15 16 1 -3 19 -13 13 -13 18 -2 25 10 8 10 11 1 15 -7 2 -13 9 -13 14 0 6 6
7 13 3 8 -5 8 -2 -2 9 -11 14 -11 17 0 17 12 0 12 2 0 9 -16 10 -21 73 -6 67
6 -1 9 -12 7 -22 -2 -18 -2 -18 8 -1 6 9 19 17 28 17 9 0 -7 11 -37 25 -52 24
-68 44 -21 27 29 -11 88 -3 69 9 -8 5 -25 9 -40 9 -14 0 -30 5 -36 11 -7 7
-14 6 -24 -4 -15 -14 -52 -20 -43 -6 2 4 0 10 -5 13 -5 3 -11 -3 -14 -14 -3
-11 -1 -20 4 -20 16 0 10 -15 -11 -28 -19 -12 -20 -11 -14 15 7 26 7 27 -10
10 -13 -13 -22 -15 -37 -7 -11 6 -19 7 -18 3 4 -25 -4 -23 -26 7 -29 39 -31
47 -10 47 8 0 12 -4 9 -9 -8 -12 10 -10 23 3 8 8 17 8 32 0 17 -9 20 -9 15 3
-4 10 -21 14 -52 14 -26 0 -48 5 -50 11 -7 20 -30 11 -36 -14 -4 -14 -11 -23
-16 -20 -5 3 -12 -4 -15 -16 -7 -21 18 -59 39 -59 6 0 3 7 -7 14 -21 16 -23
30 -3 23 8 -3 17 -3 19 1 2 4 2 1 1 -5 -2 -7 5 -17 14 -23 14 -8 14 -11 3 -19
-8 -5 -9 -11 -3 -15 6 -3 12 -1 14 6 3 9 6 9 12 0 4 -7 2 -12 -4 -12 -6 0 -9
-4 -6 -8 3 -5 -1 -9 -9 -9 -8 0 -15 4 -15 8 0 5 -7 6 -16 2 -13 -5 -13 -7 -2
-14 7 -5 8 -9 2 -9 -5 0 -15 5 -22 12 -9 9 -12 9 -12 -2 0 -13 -2 -13 -10 0
-5 8 -10 10 -10 4 0 -15 35 -45 44 -37 13 13 35 11 40 -4 4 -9 2 -11 -6 -7 -6
4 -8 3 -4 -4 3 -5 3 -12 -1 -15 -5 -2 -1 -2 7 1 40 12 86 9 100 -6 13 -14 12
-15 -2 -10 -12 5 -14 2 -10 -14 3 -14 1 -19 -6 -14 -7 4 -12 2 -12 -3 0 -6 -5
-11 -11 -11 -6 0 -9 9 -6 20 6 22 -11 31 -36 18 -9 -5 -23 -6 -30 -2 -9 5 -9
4 1 -7 28 -30 9 -57 -25 -36 -8 5 -13 3 -13 -3 0 -6 10 -15 23 -20 34 -13 -4
-12 -43 2 -30 10 -32 12 -14 19 15 7 13 8 -11 6 -17 -1 -29 -7 -28 -14 2 -7
-4 -10 -12 -7 -8 4 -15 1 -15 -5 0 -6 7 -11 17 -11 9 0 14 -2 11 -5 -3 -3 -19
-2 -37 1 -19 4 -28 10 -21 14 8 5 6 9 -7 14 -10 4 -18 6 -19 4 0 -2 -8 3 -16
10 -13 10 -16 9 -21 -8 -7 -26 -27 -26 -34 0 -4 14 -11 19 -23 15 -26 -8 -68
15 -84 45 -13 26 -12 27 16 28 15 0 28 -4 28 -9 0 -6 -4 -7 -10 -4 -5 3 -10 1
-10 -5 0 -6 8 -10 18 -8 11 2 27 -4 36 -12 16 -12 19 -12 29 5 7 11 12 34 12
51 0 24 -4 30 -22 32 -13 1 -23 -2 -23 -7 0 -5 -10 -11 -22 -14 -13 -3 -34 -9
-47 -13 -19 -6 -22 -4 -16 7 16 24 15 58 -1 52 -14 -5 -18 -16 -15 -40 2 -17
-17 -16 -35 1 -20 21 -17 29 7 23 15 -4 19 -2 15 10 -3 8 -6 17 -6 19 0 2 -7
4 -16 4 -8 0 -12 -4 -9 -10 3 -5 2 -10 -3 -10 -6 0 -12 7 -16 15 -3 8 -13 15
-21 15 -15 0 -15 -2 0 -17 16 -16 16 -17 -5 -25 -20 -7 -20 -9 -5 -25 14 -14
18 -14 27 -2 8 12 9 12 6 0 -3 -8 -16 -18 -30 -22 -26 -7 -26 -6 -30 65 -5 67
3 96 23 96 5 0 9 -5 9 -11 0 -5 -5 -7 -12 -3 -7 5 -8 3 -4 -5 5 -7 11 -10 14
-7 3 3 13 -1 23 -10 32 -29 40 -10 10 24 -43 47 -44 68 -4 65 27 -3 31 0 26
14 -4 11 -3 14 5 9 7 -4 12 -2 12 4 0 6 5 8 12 4 7 -4 8 -3 4 4 -4 7 -1 12 6
12 9 1 7 5 -4 14 -10 7 -15 16 -11 20 4 4 0 4 -10 0 -18 -7 -23 -24 -7 -24 16
0 11 -14 -10 -27 -22 -15 -50 -7 -50 13 0 15 -15 19 -23 7 -2 -5 -2 -3 -1 4 4
17 -13 26 -19 11 -3 -7 -6 -3 -6 9 -1 20 2 21 35 11 27 -7 39 -7 44 2 5 8 13
9 21 4 12 -6 12 -5 0 9 -15 19 -61 23 -61 5 0 -6 -8 -3 -20 7 -19 17 -18 41 1
30 5 -4 9 -1 9 4 0 6 -9 11 -19 11 -20 0 -35 -25 -25 -41 10 -16 -7 -90 -18
-82 -7 3 -8 1 -4 -6 4 -6 11 -9 16 -6 4 3 10 -4 13 -15 3 -11 1 -20 -3 -20
-10 0 -62 65 -80 100 -12 23 -12 24 4 11 9 -8 20 -11 24 -7 4 4 -3 15 -15 24
-14 11 -20 22 -15 30 6 9 13 7 30 -8 25 -23 40 -27 22 -5 -6 8 -9 19 -5 25 3
5 -1 10 -9 10 -9 0 -16 9 -16 20 0 11 5 20 10 20 6 0 22 11 36 23 18 17 21 24
10 24 -8 0 -17 -6 -20 -14 -6 -15 -26 -18 -26 -3 0 6 11 28 25 50 14 22 25 46
25 54 0 27 45 111 60 111 10 0 14 8 13 23 -2 12 8 50 22 84 14 34 24 63 22 64
-1 2 -18 -27 -36 -64 -42 -82 -40 -80 -52 -62 -7 12 -11 12 -17 2 -5 -7 -13
-12 -18 -10 -5 2 -10 -1 -11 -7 -1 -5 9 -9 22 -8 33 3 32 -10 -5 -94 -56 -126
-61 -132 -90 -113 -13 9 -13 11 0 21 13 9 13 10 0 6 -10 -3 -14 -15 -13 -35 2
-20 -3 -32 -14 -36 -22 -9 -28 0 -13 19 11 13 10 19 -5 35 -10 11 -15 23 -11
27 4 4 11 1 16 -7 6 -9 10 -10 10 -3 0 19 -15 23 -47 14 -26 -8 -32 -6 -40 11
-7 17 -9 15 -9 -15 0 -20 4 -33 9 -30 4 3 11 -4 14 -16 3 -12 9 -21 13 -21 4
0 10 -9 13 -20 4 -17 2 -18 -14 -9 -10 5 -19 15 -19 22 0 7 -4 6 -10 -3 -5 -8
-9 -24 -9 -35 1 -17 2 -17 6 -3 7 26 23 22 23 -6 0 -13 -7 -26 -15 -30 -8 -3
-15 -12 -15 -21 0 -12 6 -14 27 -9 18 5 30 2 38 -9 6 -8 20 -15 30 -14 10 1
24 -8 30 -19 6 -12 29 -46 52 -75 36 -47 42 -63 48 -123 6 -50 5 -67 -4 -62
-6 4 -11 2 -11 -3 0 -6 5 -11 10 -11 6 0 10 -6 10 -14 0 -9 -9 -14 -20 -13
-13 1 -19 6 -15 15 2 7 -3 16 -13 19 -9 4 -24 16 -32 27 -15 22 -23 49 -12 42
4 -2 16 2 26 9 17 13 17 14 -6 11 -35 -3 -47 -14 -43 -36 2 -13 -2 -20 -11
-20 -9 0 -12 5 -8 13 4 7 3 9 -2 4 -5 -5 -9 -12 -10 -15 0 -4 -4 -15 -8 -24
-6 -14 -12 -15 -28 -7 -17 9 -38 6 -27 -5 8 -8 69 -14 64 -6 -3 4 6 11 20 14
33 9 78 -29 69 -58 -4 -12 -3 -18 1 -14 4 4 14 0 23 -8 12 -13 16 -13 23 -2 5
7 9 8 9 2 0 -19 -12 -24 -32 -13 -18 9 -18 8 -8 -10 8 -16 8 -21 -3 -21 -7 0
-19 6 -26 13 -10 10 -11 8 -5 -7 5 -13 4 -17 -3 -13 -6 4 -16 0 -23 -8 -10
-12 -16 -13 -26 -4 -8 6 -14 7 -14 3 0 -12 39 -36 48 -30 5 3 14 -4 21 -16 7
-11 8 -17 2 -13 -17 10 -13 -11 4 -25 8 -7 12 -16 9 -21 -3 -5 2 -6 10 -3 9 3
13 11 9 18 -3 6 4 2 16 -8 18 -17 21 -17 15 -3 -3 10 -1 17 5 17 15 0 30 -63
17 -72 -5 -4 -14 -4 -18 -2 -4 3 -5 -2 -2 -10 11 -30 -16 -16 -59 29 -50 51
-142 218 -133 241 3 8 2 12 -3 9 -6 -3 -14 3 -20 12 -8 14 -10 15 -10 3 0 -8
6 -26 14 -40 16 -28 20 -80 6 -80 -5 0 -12 6 -14 13 -3 6 -5 -4 -6 -23 0 -28
2 -31 9 -15 7 17 9 16 10 -10 1 -16 4 -24 7 -17 4 10 8 10 19 1 13 -10 13 -8
4 15 -15 39 -12 44 10 17 11 -13 20 -32 20 -42 0 -10 6 -19 13 -19 8 0 8 -3 2
-8 -20 -14 -11 -47 12 -47 25 -1 93 -61 93 -82 0 -8 10 -17 21 -22 15 -5 22
-17 24 -41 2 -19 9 -39 17 -44 16 -13 12 -50 -4 -40 -6 4 -8 1 -6 -7 3 -8 2
-21 -3 -30 -5 -11 -3 -16 6 -16 8 0 12 5 9 11 -3 6 1 3 9 -6 18 -23 31 -23 25
0 -3 12 1 18 12 18 19 0 20 -27 0 -51 -12 -15 -14 -15 -22 -1 -5 9 -20 15 -34
14 -19 -2 -27 -9 -31 -31 -4 -19 -8 -24 -14 -16 -4 7 -3 21 2 30 12 22 12 42
0 35 -10 -7 -22 17 -27 55 -3 23 0 26 18 21 14 -3 19 -1 14 6 -3 6 -15 9 -25
7 -21 -4 -47 43 -38 67 3 8 6 6 6 -6 1 -11 6 -16 15 -13 7 3 18 1 24 -5 6 -6
12 -6 16 1 4 6 2 11 -4 11 -6 0 -9 4 -6 9 3 4 -3 16 -14 26 -16 15 -25 16 -43
8 -24 -11 -52 -3 -52 15 0 14 -49 71 -56 66 -4 -2 -9 3 -13 11 -3 8 -10 15
-16 15 -6 0 -3 -12 7 -28 17 -25 17 -26 0 -13 -15 12 -17 11 -17 -13 0 -26 25
-37 32 -14 3 7 12 9 22 5 9 -4 15 -11 11 -16 -3 -6 -12 -8 -20 -4 -9 3 -15 -1
-15 -11 0 -9 -6 -16 -13 -16 -18 0 -18 -67 -1 -74 10 -4 13 20 4 32 -15 18 4
42 34 42 15 0 16 -3 6 -15 -7 -8 -16 -12 -21 -9 -13 8 -11 -20 3 -34 20 -20
31 -14 24 13 -7 27 0 31 24 15 9 -6 11 -10 3 -10 -7 0 -10 -6 -7 -14 3 -7 -2
-16 -11 -20 -9 -3 -13 -10 -10 -16 3 -5 1 -10 -4 -10 -6 0 -11 6 -11 13 -1 7
-6 5 -14 -5 -7 -10 -16 -18 -19 -18 -3 0 -8 8 -10 18 -4 15 -5 15 -6 -2 0 -10
7 -25 16 -32 10 -7 14 -16 10 -20 -4 -5 -12 -3 -16 4 -4 7 -8 -60 -9 -148 l-1
-160 212 0 c195 0 214 2 237 20 14 11 29 20 34 20 22 0 96 43 90 51 -3 6 5 7
20 3 30 -7 82 11 90 32 3 8 10 14 16 14 6 0 8 -4 5 -10 -4 -7 2 -7 19 0 19 7
30 5 48 -9 19 -16 20 -21 9 -35 -7 -9 -18 -13 -23 -10 -6 4 -13 1 -17 -5 -4
-6 -18 -13 -30 -16 -13 -2 -29 -9 -37 -16 -11 -9 -14 -8 -14 2 0 7 -10 3 -26
-12 -14 -13 -28 -23 -31 -21 -2 2 -7 1 -11 -2 -3 -3 54 -6 126 -6 99 0 132 3
132 13 0 9 2 9 8 -1 11 -16 482 -15 482 2 0 6 4 5 9 -2 5 -8 23 -12 47 -10 33
3 39 6 36 25 -3 23 12 37 43 39 11 0 31 4 44 8 16 6 21 5 17 -3 -4 -6 -16 -11
-26 -11 -17 0 -50 -34 -50 -52 0 -12 1488 -9 1495 3 4 5 18 6 32 3 39 -10 76
-11 96 -1 9 4 26 3 37 -3 14 -8 25 -7 40 2 16 10 24 10 40 0 17 -10 20 -10 20
3 0 8 -5 15 -12 15 -6 0 -9 3 -5 6 3 4 19 2 35 -4 21 -7 33 -7 41 1 8 8 11 8
11 -2 0 -9 5 -8 16 4 12 11 20 13 29 5 8 -7 15 -7 19 -1 3 5 0 12 -6 15 -7 4
1 4 19 1 18 -2 35 0 38 5 6 9 -14 14 -42 11 -7 -1 -13 2 -13 6 0 4 -28 7 -63
7 -97 -2 -105 -3 -120 -18 -8 -8 -26 -13 -41 -12 -14 2 -26 0 -26 -3 0 -4 -11
-8 -25 -9 -18 -1 -23 2 -19 13 5 13 37 20 69 16 6 -1 3 4 -6 11 -29 24 -33 57
-8 79 26 23 14 24 -34 4 -35 -15 -36 -14 -50 15 -11 21 -12 30 -3 34 6 2 4 5
-4 5 -9 1 -22 10 -30 21 -10 13 -21 18 -35 14 -15 -4 -17 -3 -5 5 8 5 26 7 41
4 21 -4 27 -1 32 16 3 12 13 21 22 21 9 0 13 -5 10 -10 -4 -6 -11 -8 -16 -5
-5 4 -9 -3 -9 -14 0 -12 7 -21 15 -21 8 0 15 -6 15 -14 0 -10 16 -17 45 -22
27 -4 42 -10 38 -17 -4 -7 6 -8 30 -4 21 3 37 2 37 -4 0 -5 -9 -9 -20 -9 -11
0 -20 -4 -20 -9 0 -13 93 -8 97 6 3 7 -4 10 -19 7 -21 -5 -21 -4 -5 6 20 13
71 5 63 -9 -8 -12 26 -20 58 -14 36 7 33 20 -5 17 -19 -1 -32 3 -36 12 -8 22
0 25 37 14 23 -7 38 -6 47 2 7 6 16 8 20 4 3 -3 1 -6 -5 -6 -7 0 -12 -8 -12
-17 0 -14 2 -15 9 -4 5 8 18 12 30 8 12 -3 21 -1 21 4 0 5 5 9 10 9 6 0 10 -7
10 -15 0 -15 12 -20 23 -9 3 4 -1 14 -10 23 -16 15 -15 16 5 19 12 2 22 8 22
13 0 5 9 9 20 9 11 0 20 -3 20 -8 0 -4 10 -13 22 -21 22 -14 22 -14 5 13 -17
25 -13 32 16 27 4 0 7 5 7 13 0 8 -11 14 -26 14 -15 0 -30 6 -35 13 -7 12 -9
12 -9 -1 0 -11 -3 -11 -12 -2 -7 7 -22 12 -35 12 -13 0 -23 4 -23 9 0 5 -9 11
-21 14 -14 4 -19 2 -16 -7 3 -7 0 -13 -6 -13 -7 0 -26 -3 -44 -7 -19 -4 -34
-3 -38 3 -8 14 -45 14 -45 1 0 -5 -14 -10 -31 -10 -27 0 -30 -2 -19 -15 15
-18 -1 -20 -18 -3 -7 7 -29 12 -49 13 -20 0 -38 6 -40 13 -3 7 5 12 22 12 15
0 24 4 20 10 -3 5 -2 10 3 10 6 0 12 -7 16 -15 3 -8 10 -15 15 -15 6 0 8 7 5
15 -4 8 -1 15 5 15 6 0 11 -4 11 -9 0 -14 34 -9 49 6 6 7 9 13 6 13 -4 0 3 12
14 26 25 31 27 46 6 38 -16 -6 -45 12 -45 27 0 5 7 9 15 9 8 0 15 -5 15 -11 0
-7 11 -8 29 -4 23 5 30 2 34 -12 5 -17 5 -17 6 0 0 10 6 15 11 12 6 -4 16 -3
23 2 7 5 24 9 39 8 15 0 25 2 22 6 -2 4 8 16 23 27 l26 19 -26 7 c-29 7 -37
26 -11 26 13 0 14 3 5 13 -13 16 -38 15 -99 -2 -37 -10 -41 -14 -32 -31 17
-31 12 -35 -40 -36 -42 0 -50 3 -52 20 -2 11 -9 21 -17 24 -9 3 -11 0 -6 -8 6
-10 4 -12 -8 -7 -11 4 -14 2 -10 -9 3 -7 10 -14 16 -14 6 0 8 -3 5 -6 -4 -3
-15 -1 -26 5 -13 7 -22 7 -30 -1 -8 -8 -16 -6 -28 7 -14 14 -15 18 -3 25 11 7
10 10 -3 15 -9 4 -20 19 -23 35 -6 26 -9 28 -43 24 -20 -3 -38 -7 -41 -9 -8
-9 -31 17 -24 28 3 5 1 7 -5 3 -6 -3 -13 -2 -17 4 -3 5 -15 10 -26 10 -10 0
-19 5 -19 11 0 6 7 9 15 5 8 -3 15 -1 15 4 0 6 8 10 17 10 26 0 3 18 -31 24
-16 3 -33 10 -36 17 -5 8 -16 6 -36 -6 -16 -9 -21 -14 -12 -11 15 4 16 1 8
-20 -13 -34 -13 -34 10 -34 11 0 20 -4 20 -9 0 -4 -21 -7 -47 -4 -51 4 -72 13
-31 13 14 0 29 7 32 16 9 23 8 24 -19 24 -14 0 -26 6 -26 13 -1 6 -2 17 -4 22
-1 6 -3 15 -3 22 -1 6 -10 14 -19 16 -10 3 0 6 22 7 l40 2 -29 12 c-15 7 -40
12 -53 10 l-25 -3 6 77 c12 152 25 359 27 462 3 101 13 150 31 150 4 0 8 -7 8
-16 0 -31 33 -8 50 36 10 25 25 46 34 48 11 2 16 14 16 38 0 27 5 36 24 44 13
5 27 13 30 18 3 5 26 7 51 4 30 -3 45 -1 45 7 0 6 9 11 20 11 11 0 20 7 20 15
0 9 9 15 23 15 35 0 63 89 34 107 -7 4 -18 20 -24 34 -18 41 -75 63 -145 55
-63 -6 -73 -1 -32 14 21 8 25 15 22 35 -3 13 -1 22 3 19 5 -3 6 9 2 27 -7 36
6 49 54 49 22 0 33 -6 38 -19 3 -10 14 -26 25 -36 19 -18 20 -17 20 9 0 15 16
84 36 154 31 108 35 133 27 164 -6 21 -6 35 -2 32 10 -6 11 1 9 196 0 163 -1
148 4 290 1 58 6 128 10 157 6 43 5 53 -10 61 -9 5 -18 20 -19 33 -1 19 -8 25
-33 27 -23 2 -32 8 -32 22 0 10 -14 30 -31 45 -34 28 -34 29 1 44 20 9 12 10
-35 6 -59 -6 -60 -5 -36 12 42 30 93 44 125 33 15 -5 32 -7 37 -4 5 3 9 0 9
-5 0 -6 -6 -11 -12 -12 -7 -1 -22 -2 -32 -3 -11 0 -21 -7 -24 -14 -3 -9 11
-12 53 -10 79 3 86 -8 78 -126 l-6 -91 21 18 c28 26 46 105 34 151 -12 41 -3
51 31 35 19 -8 31 -8 53 4 29 15 92 11 137 -8 9 -4 17 -3 17 3 0 17 59 35 101
29 30 -4 42 -2 46 10 3 8 16 19 29 24 25 9 31 45 18 96 -5 19 -9 21 -26 12
-16 -9 -20 -7 -25 10 -4 15 -14 21 -37 23 -17 1 -39 2 -48 2 -10 1 -23 7 -30
14 -19 19 -55 15 -55 -5 1 -65 -4 -97 -12 -84 -5 7 -15 10 -22 7 -8 -4 -6 -1
4 7 21 18 22 31 2 23 -9 -3 -18 1 -21 9 -9 22 -23 9 -17 -15 5 -19 -4 -25 -34
-21 -7 1 -13 -3 -13 -9 0 -5 -18 -10 -39 -10 -29 0 -41 5 -44 18 -3 10 -5 6
-6 -11 -1 -20 -8 -30 -27 -37 -44 -17 -61 -10 -24 9 33 18 34 19 11 22 -14 2
-27 10 -29 18 -3 10 0 12 12 8 15 -6 17 -3 11 26 -11 49 -33 97 -44 97 -6 0
-11 6 -11 14 0 8 -5 18 -12 22 -7 5 -8 3 -3 -6 5 -9 4 -11 -3 -6 -7 4 -12 14
-12 22 0 8 -16 22 -35 31 l-34 16 25 13 c26 14 54 9 54 -8 0 -7 -4 -7 -13 0
-8 7 -18 7 -27 2 -12 -8 -12 -10 4 -10 10 0 34 -16 52 -36 19 -19 34 -32 34
-29 0 15 -46 91 -65 108 -11 10 -14 16 -7 12 7 -4 12 0 12 10 0 8 -7 18 -15
21 -8 4 -15 12 -15 20 0 8 -4 14 -10 14 -19 0 -7 62 17 89 2 3 22 -14 46 -37
23 -23 74 -57 112 -77 39 -20 104 -59 145 -88 64 -45 76 -57 80 -87 3 -22 8
-31 13 -23 4 7 3 38 -2 70 -6 31 -11 73 -11 93 0 30 -5 39 -27 49 -16 7 -44
23 -64 37 -32 22 -35 28 -32 65 3 35 1 40 -13 35 -14 -5 -15 -4 -4 9 10 12 10
15 -4 15 -25 0 -19 38 9 56 20 13 23 19 14 30 -10 12 -8 13 7 8 24 -9 16 0
-15 16 -15 8 -21 8 -17 1 4 -6 1 -11 -8 -11 -8 0 -18 5 -22 11 -4 7 -22 9 -48
5 -28 -4 -36 -3 -26 3 12 8 11 13 -5 31 -21 23 -69 51 -82 48 -4 0 -21 5 -38
12 -16 7 -38 12 -47 12 -21 -1 -23 9 -6 26 9 9 9 15 1 23 -8 8 -16 4 -28 -15
-16 -24 -18 -24 -35 -8 -19 17 -22 55 -6 80 12 20 -9 14 -29 -8 -24 -26 -35
-25 -35 4 0 25 -35 43 -46 24 -4 -6 -10 -5 -15 3 -7 11 -9 9 -10 -6 l0 -20 -8
20 c-11 26 5 55 29 55 10 0 22 5 26 12 5 8 -3 9 -29 5 -41 -6 -42 -5 -26 24 8
17 7 23 -8 34 -10 7 -22 11 -27 8 -5 -4 -6 -1 -2 5 4 7 3 12 -3 12 -5 0 -11 7
-13 17 -2 12 -11 4 -32 -25z m34 -1509 c33 13 79 2 87 -21 9 -24 25 -33 47
-26 15 5 18 3 11 -12 -38 -95 -54 -272 -31 -340 22 -65 22 -337 1 -408 -8 -27
-19 -54 -24 -60 -5 -6 -12 -28 -16 -48 -5 -27 -11 -35 -22 -31 -13 5 -14 3 -3
-17 7 -13 13 -40 13 -59 1 -30 -2 -35 -19 -33 -10 2 -20 5 -21 6 -2 2 -3 64
-2 163 0 29 -3 62 -6 74 -6 17 0 28 25 49 27 23 31 30 21 48 -15 28 -14 45 2
36 8 -5 8 -2 -2 9 -9 12 -10 21 -4 30 14 17 26 217 13 217 -5 0 -10 8 -10 18
0 10 -9 37 -20 60 -15 30 -20 61 -20 117 0 41 2 75 4 75 19 0 36 -16 37 -34 1
-45 18 17 18 71 l1 51 -50 7 c-27 4 -54 4 -61 0 -8 -5 -9 -1 -4 15 5 15 4 20
-4 16 -6 -4 -11 -5 -11 -2 0 2 -3 12 -7 22 -5 14 -3 15 12 7 12 -7 27 -7 45 0z
m-84 -251 c25 -21 33 -38 37 -74 3 -27 3 -48 -1 -48 -4 0 -6 -20 -5 -45 2 -49
2 -49 -41 -59 -26 -6 -28 -5 -17 8 8 9 20 16 27 16 8 0 14 4 14 8 0 5 -15 6
-32 4 -29 -4 -31 -3 -20 10 10 13 9 16 -8 21 -13 3 -20 0 -20 -10 0 -8 -4 -12
-9 -9 -5 3 -7 19 -5 36 2 16 0 30 -4 30 -4 0 -5 25 -4 56 3 39 1 54 -7 50 -6
-4 -11 -15 -12 -24 0 -14 -2 -13 -8 3 -6 15 -3 22 11 28 11 4 24 5 29 1 5 -3
9 2 9 10 0 25 32 19 66 -12z m-306 -337 c0 -8 5 -24 11 -34 7 -10 9 -30 5 -46
-5 -20 -10 -25 -15 -16 -14 21 -20 -2 -11 -39 4 -19 8 -26 9 -15 1 16 3 17 10
6 5 -8 7 -20 4 -27 -2 -6 1 -15 6 -19 6 -3 9 -11 5 -16 -4 -6 -10 -6 -19 1 -9
8 -14 5 -18 -9 -4 -17 -1 -19 22 -15 l27 6 -2 -82 c-1 -52 -6 -85 -14 -90 -9
-5 -9 -9 -1 -14 6 -4 11 -14 11 -23 0 -12 -3 -13 -14 -4 -18 15 -31 -3 -28
-39 2 -22 1 -23 -7 -5 -27 65 -31 96 -26 225 6 150 9 178 20 233 7 36 25 52
25 22z m-1910 -1877 c-16 -18 -28 -48 -17 -48 1 0 16 -4 33 -9 23 -7 31 -5 32
5 1 8 3 20 4 28 1 8 8 12 17 8 22 -8 45 -32 32 -32 -6 0 -11 -7 -11 -16 0 -14
-3 -14 -15 -4 -11 9 -15 9 -15 1 0 -6 7 -14 15 -17 18 -7 20 -40 3 -50 -7 -5
-8 -3 -3 7 5 8 -1 5 -13 -5 -17 -15 -22 -16 -22 -5 0 8 4 19 10 25 6 6 5 15
-1 24 -9 12 -10 12 -5 -3 3 -11 2 -16 -4 -12 -6 3 -10 14 -10 23 0 14 -2 15
-9 2 -6 -8 -8 -17 -5 -21 2 -4 -1 -11 -7 -15 -8 -4 -9 -3 -5 4 5 8 0 12 -13
12 -25 0 -26 -4 -5 -24 14 -15 14 -16 0 -16 -12 0 -15 -6 -10 -25 4 -16 2 -25
-6 -25 -6 0 -9 -4 -6 -9 3 -5 -1 -14 -9 -21 -10 -9 -15 -9 -15 -1 0 6 -4 11
-10 11 -5 0 -7 -7 -3 -16 4 -12 2 -15 -8 -12 -8 3 -14 17 -13 34 0 26 4 29 32
29 34 0 42 9 16 19 -8 3 -12 11 -9 16 4 6 3 10 -2 9 -17 -4 -42 13 -37 26 4
10 -1 12 -17 8 -16 -4 -20 -2 -17 8 3 8 11 15 19 15 8 1 20 2 28 3 7 0 11 7 8
15 -4 10 -1 13 7 10 8 -3 16 4 19 16 3 12 10 19 16 16 5 -4 12 -2 16 4 3 5 0
10 -7 11 -7 0 -4 4 7 9 33 14 37 11 15 -12z"/>
<path d="M5874 3955 c-13 -20 -14 -28 -4 -40 7 -8 10 -21 7 -28 -6 -17 68 -97
105 -114 25 -11 27 -10 33 18 4 16 10 29 15 29 4 0 10 11 12 25 4 16 1 25 -7
25 -8 0 -11 8 -8 20 4 16 8 18 19 9 11 -9 14 -9 14 0 0 8 8 10 20 6 11 -3 20
-2 20 4 0 5 3 17 6 25 5 13 1 15 -17 13 -15 -3 -29 3 -37 15 -14 19 -38 15
-26 -4 9 -13 -17 -29 -31 -19 -17 14 -74 18 -79 7 -2 -6 -5 -1 -5 12 -1 29
-17 28 -37 -3z"/>
<path d="M6135 3860 c-2 -4 4 -17 14 -29 10 -12 16 -31 14 -44 -3 -15 4 -32
21 -50 19 -20 21 -27 9 -25 -10 2 -19 -7 -26 -25 -12 -37 -4 -43 35 -24 18 8
43 18 56 22 20 6 22 12 22 78 0 69 -1 73 -27 84 -36 14 -112 23 -118 13z"/>
<path d="M5362 1243 l37 -38 -25 -18 c-22 -17 -26 -17 -56 -1 -18 9 -41 23
-50 31 -10 9 -25 12 -39 8 -14 -5 -19 -4 -15 4 5 7 1 9 -9 5 -11 -5 -13 -10
-5 -19 13 -16 4 -22 -32 -20 -43 1 -33 -13 15 -23 l42 -9 -42 -4 c-23 -2 -39
-1 -37 2 4 8 -20 19 -42 19 -8 0 -14 -4 -14 -10 0 -5 6 -7 14 -4 8 3 17 1 21
-5 4 -7 -5 -11 -24 -11 -33 0 -39 -21 -9 -30 14 -4 15 -8 3 -23 -9 -12 -27
-18 -54 -19 -22 0 -38 -4 -35 -9 6 -11 -30 -12 -76 -3 -22 5 -28 9 -18 15 9 6
9 9 1 9 -23 0 -23 -18 1 -41 27 -26 19 -52 -12 -42 -15 4 -15 3 -2 -6 9 -6 10
-11 3 -11 -6 0 -19 -3 -28 -6 -13 -5 -16 -2 -13 17 2 13 9 23 16 21 8 -1 11 2
7 7 -8 14 -35 2 -35 -16 0 -10 -6 -13 -17 -9 -9 4 -19 3 -22 -1 -3 -5 -18 -16
-33 -26 -17 -11 -28 -26 -28 -40 0 -26 -34 -102 -50 -112 -6 -4 -8 -11 -5 -16
4 -5 -1 -9 -10 -9 -9 0 -13 -4 -10 -10 3 -5 0 -10 -8 -10 -16 0 -30 -27 -21
-41 5 -8 -9 -13 -28 -10 -12 2 -9 -17 3 -24 15 -10 78 -12 73 -3 -3 5 2 8 10
8 8 0 17 -4 21 -10 3 -5 12 -7 20 -3 10 3 15 -1 15 -12 0 -10 -5 -15 -14 -12
-8 3 -13 -1 -12 -11 1 -11 -6 -16 -17 -15 -12 0 -16 -4 -13 -13 3 -8 1 -14 -4
-14 -6 0 -11 12 -11 28 -1 16 -3 20 -6 10 -2 -10 -9 -18 -14 -18 -6 0 -9 -6
-7 -13 2 -6 -8 -27 -22 -46 -13 -19 -19 -31 -12 -28 9 7 40 -32 33 -41 -2 -2
1 -7 5 -10 4 -4 4 -1 0 6 -4 7 -1 12 8 12 9 0 16 -4 16 -10 0 -5 10 -9 23 -7
13 1 21 -3 20 -10 -2 -7 1 -13 6 -13 5 0 12 6 14 13 4 9 6 9 6 -1 1 -19 -29
-27 -53 -13 -11 6 -8 1 9 -13 28 -24 29 -25 5 -19 -14 4 -44 17 -67 30 -24 13
-43 20 -43 16 0 -4 -4 -3 -8 3 -4 6 -18 15 -30 19 -22 6 -23 5 -13 -14 7 -12
14 -21 17 -21 3 0 2 5 -1 10 -3 6 -1 10 5 10 6 0 13 -6 16 -13 2 -7 14 -14 27
-14 12 -1 27 -9 33 -17 6 -9 14 -13 17 -9 9 9 57 -25 57 -41 0 -8 -6 -17 -12
-20 -7 -3 -3 -3 8 -1 12 3 28 0 36 -8 7 -7 18 -12 25 -10 12 4 28 -15 20 -23
-3 -3 -14 -1 -24 5 -15 8 -23 6 -35 -8 -14 -17 -14 -20 3 -32 11 -7 19 -19 19
-25 0 -19 27 -24 41 -8 11 13 10 15 -6 12 -10 -1 -20 2 -22 9 -3 9 5 9 32 0
31 -9 34 -13 21 -22 -12 -9 -13 -14 -3 -24 9 -9 9 -14 -2 -20 -20 -13 -5 -43
18 -39 11 2 26 -6 34 -16 10 -13 16 -15 21 -8 4 7 2 12 -3 12 -6 0 -11 5 -11
11 0 7 11 4 26 -6 15 -9 23 -12 20 -6 -5 7 2 11 18 11 26 0 33 14 18 38 -5 7
-16 10 -26 6 -12 -5 -14 -9 -6 -14 7 -5 2 -9 -13 -12 -17 -3 -24 -1 -21 7 3 6
-2 12 -10 12 -8 0 -12 -6 -9 -15 5 -12 3 -12 -16 -1 -11 8 -21 17 -21 21 0 10
38 20 49 14 5 -4 11 -2 13 3 5 16 58 25 58 11 0 -7 12 -24 26 -37 18 -16 24
-29 19 -41 -5 -11 -9 -13 -12 -5 -2 7 -11 9 -19 6 -17 -6 -9 -23 12 -23 23 0
44 25 34 40 -8 14 12 31 52 46 10 3 15 11 11 17 -4 7 15 8 59 5 51 -4 65 -2
65 8 0 8 -4 14 -9 14 -4 0 -8 11 -8 25 0 17 6 25 18 25 14 0 15 2 2 10 -9 6
-17 5 -21 -2 -6 -9 -11 -9 -22 0 -7 7 -17 9 -21 5 -4 -4 -24 -6 -44 -5 -25 2
-33 0 -24 -6 8 -5 12 -18 10 -28 -4 -18 -5 -17 -16 3 -20 36 -7 48 55 50 42 1
60 6 70 19 9 13 10 20 2 25 -8 4 -4 11 10 18 16 9 21 9 22 -1 0 -7 4 -3 9 10
5 12 15 22 21 22 8 0 8 -5 -2 -16 -11 -13 -9 -14 17 -8 16 4 38 12 49 18 11 5
23 9 28 8 4 -1 7 3 7 8 0 6 5 10 10 10 14 0 50 37 43 44 -3 3 -14 1 -24 -5
-22 -11 -25 1 -6 20 10 10 8 15 -7 27 -17 12 -17 14 -4 14 9 0 20 -9 23 -20 7
-21 35 -28 35 -9 0 6 9 9 19 6 11 -3 29 2 40 10 12 8 21 11 21 6 0 -4 5 -1 10
9 6 10 18 14 30 11 15 -4 20 0 20 13 1 15 4 12 16 -9 14 -27 16 -27 29 -11 10
15 10 20 -1 32 -18 17 -18 20 2 18 9 0 18 4 20 9 2 6 -9 10 -25 10 -20 0 -27
-4 -23 -14 3 -9 1 -12 -6 -7 -6 3 -15 -1 -20 -9 -8 -15 -10 -15 -22 0 -12 14
-12 16 1 13 7 -1 14 2 14 7 0 5 -5 9 -12 7 -6 -1 -14 2 -18 8 -5 8 -11 8 -21
-1 -8 -6 -28 -9 -44 -7 -27 4 -32 1 -37 -22 -4 -22 -9 -27 -27 -22 -11 3 -27
11 -34 18 -7 7 -22 11 -34 9 -15 -3 -18 -1 -11 6 8 8 7 19 0 39 -9 23 -14 27
-28 19 -21 -11 -37 20 -17 32 9 6 8 10 -5 15 -9 3 -17 10 -17 14 0 9 52 6 67
-3 6 -4 18 -4 27 -1 15 6 15 3 -1 -23 -16 -28 -15 -31 3 -56 23 -31 38 -33 63
-8 12 12 17 27 14 45 -3 15 -1 26 6 26 5 0 8 7 5 15 -4 9 -19 15 -40 15 -19 0
-34 5 -34 12 0 6 -3 8 -7 5 -7 -8 -33 11 -33 24 0 5 7 6 15 3 31 -12 13 6 -22
23 -21 9 -41 21 -44 26 -4 5 -9 4 -13 -2 -10 -16 -26 -13 -20 3 7 19 -26 36
-70 36 -20 0 -35 3 -35 8 3 18 -2 22 -19 13 -11 -6 -24 -6 -33 0 -7 5 -9 9 -4
10 49 9 95 30 95 45 0 8 -9 14 -20 14 -13 0 -18 -5 -14 -15 8 -19 -10 -19 -26
0 -11 13 -16 13 -42 -3 -25 -15 -30 -15 -38 -2 -8 13 -14 8 -12 -11 1 -3 -13
-6 -29 -6 -19 0 -25 3 -17 9 9 5 6 8 -9 8 -17 0 -21 -4 -16 -16 5 -14 3 -15
-15 -5 -26 14 -29 36 -6 45 23 9 36 7 29 -4 -14 -23 21 -8 52 22 18 18 33 27
33 21 0 -6 9 -9 20 -6 11 3 17 9 14 14 -3 5 -10 7 -15 4 -5 -4 -9 -2 -9 4 0
16 19 23 70 28 42 4 55 0 99 -29 28 -18 50 -37 49 -43 -3 -10 22 -49 52 -84 8
-10 16 -24 18 -32 7 -37 26 -58 46 -54 42 11 125 11 119 2 -3 -6 -1 -7 5 -3 8
5 10 2 6 -9 -5 -12 -9 -13 -20 -4 -22 18 -18 -14 7 -44 11 -15 23 -42 26 -61
4 -24 10 -33 19 -29 8 3 16 -2 20 -10 3 -8 13 -14 22 -12 9 2 25 4 35 4 9 1
17 9 18 19 1 11 4 8 8 -8 5 -14 3 -34 -2 -45 -7 -13 -6 -20 2 -23 6 -2 8 -9 5
-14 -4 -6 -2 -8 4 -4 20 12 22 -11 2 -29 -24 -21 -26 -40 -5 -31 9 3 15 0 15
-9 0 -8 -8 -15 -17 -15 -14 0 -15 -2 -5 -9 11 -7 10 -10 -3 -15 -9 -3 -21 -4
-26 0 -5 3 -8 -6 -7 -20 2 -26 12 -34 22 -17 4 5 0 11 -6 14 -7 2 -1 8 15 12
15 4 27 13 27 20 0 7 7 18 16 25 13 11 16 10 21 -8 3 -12 10 -22 15 -22 5 0 7
8 4 18 -3 9 -1 23 3 31 8 12 12 12 25 2 9 -7 13 -17 10 -22 -3 -5 0 -9 5 -9 6
0 11 9 11 21 0 14 -10 24 -30 32 -16 6 -30 15 -30 19 0 12 14 9 36 -7 28 -21
34 -18 21 10 -13 27 -28 31 -58 15 -23 -13 -79 17 -58 31 7 4 16 6 20 3 4 -2
10 3 13 12 3 8 2 12 -4 9 -23 -14 -30 8 -9 26 26 23 36 25 19 4 -10 -13 -9
-15 9 -15 21 0 27 15 13 37 -6 10 -14 9 -34 -1 -22 -12 -27 -12 -32 -1 -3 9 0
12 10 8 7 -3 14 -1 14 5 0 17 -29 22 -38 5 -8 -14 -10 -14 -15 1 -7 18 -57 22
-57 5 0 -8 -4 -9 -13 0 -8 6 -16 10 -18 8 -2 -1 2 4 10 11 8 6 18 12 23 12 4
0 -1 9 -12 20 -21 21 -28 46 -8 34 7 -4 8 -3 4 4 -4 6 -13 9 -21 6 -10 -4 -13
0 -10 16 3 18 1 21 -16 17 -15 -4 -24 4 -41 36 -11 23 -25 45 -30 48 -5 3 2
16 17 27 16 13 24 27 20 34 -4 7 2 3 13 -9 19 -22 20 -22 25 -3 3 11 1 18 -4
15 -4 -3 -19 1 -33 10 -28 18 -46 4 -26 -20 10 -12 9 -15 -3 -15 -19 0 -41 26
-28 34 5 3 7 15 4 26 -6 23 -58 54 -73 45 -13 -8 -13 1 2 24 11 19 14 18 51
-15 35 -32 40 -34 51 -18 11 14 9 21 -11 42 -13 14 -23 29 -23 33 0 5 -8 6
-17 3 -15 -5 -15 -4 -3 4 8 6 18 8 22 6 5 -3 11 2 14 11 4 9 13 14 20 11 8 -3
14 -1 14 4 0 6 9 5 20 -2 11 -7 18 -19 15 -26 -2 -7 2 -15 11 -19 8 -3 13 -11
10 -19 -3 -7 3 -15 12 -17 16 -4 15 -5 0 -6 -10 0 -18 -7 -18 -13 0 -8 -7 -5
-15 6 -8 11 -18 16 -22 13 -10 -11 28 -35 48 -30 9 3 26 0 37 -6 18 -10 20 -8
19 24 -1 19 -5 35 -11 35 -5 0 -6 3 -3 7 4 3 21 -9 37 -27 17 -19 30 -29 30
-22 0 6 -6 15 -13 19 -8 4 -17 17 -20 27 -6 16 -5 17 8 6 13 -10 15 -9 15 8 0
12 -4 24 -10 27 -5 3 -10 1 -10 -4 0 -6 -7 -11 -15 -11 -8 0 -15 5 -15 10 0 6
-6 10 -14 10 -8 0 -16 7 -20 15 -3 8 -12 15 -20 15 -8 0 -18 5 -22 11 -5 9 7
10 42 6 27 -4 42 -4 34 0 -8 3 -21 12 -28 20 -12 11 -26 15 -48 12 -4 0 -11 5
-15 13 -6 9 -9 7 -9 -9 0 -14 -6 -23 -15 -23 -9 0 -21 -11 -27 -25 -8 -19 -14
-22 -20 -13 -11 19 -10 26 7 30 10 2 12 8 5 17 -7 12 -11 13 -25 1 -13 -11
-20 -10 -45 8 -45 33 -48 26 -8 -15z m-264 -597 c48 -25 118 -56 129 -56 6 0
20 -16 32 -35 11 -19 25 -35 31 -35 5 0 10 -7 10 -16 0 -8 4 -13 9 -10 10 7
33 -18 25 -27 -3 -3 -14 -1 -24 6 -14 8 -25 8 -46 -1 -14 -7 -29 -10 -32 -7
-3 3 0 5 6 5 7 0 12 7 12 16 0 8 -4 12 -10 9 -5 -3 -10 1 -10 9 0 9 -6 16 -13
16 -8 0 -22 9 -31 19 -10 11 -35 32 -57 47 -32 22 -41 25 -54 14 -9 -7 -33
-12 -53 -12 -20 1 -52 -6 -69 -15 -31 -17 -34 -17 -50 1 -16 16 -16 19 -3 24
8 3 49 18 90 33 41 14 77 27 78 28 2 0 16 -5 30 -13z"/>
<path d="M6097 1224 c8 -23 28 -44 40 -44 12 0 44 -100 36 -113 -3 -5 -10 -3
-15 4 -8 11 -9 10 -5 -2 3 -9 -3 -26 -13 -37 -10 -11 -16 -23 -12 -26 3 -4 -1
-4 -11 0 -11 4 -17 1 -17 -7 0 -7 -3 -9 -7 -6 -3 4 -12 2 -20 -4 -7 -6 -13 -8
-13 -3 -1 5 -7 -2 -15 -16 -8 -14 -14 -20 -15 -15 0 14 -60 19 -60 5 0 -5 7
-10 15 -10 8 0 15 -5 15 -11 0 -7 -10 -9 -26 -5 -18 5 -32 2 -46 -11 -15 -13
-19 -14 -16 -3 2 10 -14 19 -54 28 -38 9 -56 18 -51 26 4 7 1 7 -7 -1 -7 -7
-14 -24 -16 -38 l-3 -26 19 23 c20 25 18 26 35 -27 2 -8 -2 -15 -10 -15 -7 0
-20 -7 -28 -15 -13 -12 -16 -12 -20 -1 -6 16 -47 10 -47 -6 0 -5 6 -6 13 -2 9
6 9 4 -1 -8 -7 -9 -9 -19 -4 -22 11 -6 71 0 80 8 3 4 16 -1 28 -9 24 -16 38
-7 39 25 0 8 8 16 19 18 11 3 16 0 11 -7 -3 -6 -12 -8 -18 -4 -7 4 -5 -2 3
-13 8 -10 15 -20 15 -21 1 -2 17 2 35 7 24 7 36 6 41 -2 4 -6 15 -8 24 -4 15
5 15 9 4 24 -12 15 -12 16 1 6 61 -44 99 -78 94 -86 -3 -5 -12 -4 -20 3 -10 8
-18 9 -25 2 -8 -8 -7 -13 0 -17 16 -10 14 -39 -1 -30 -10 6 -10 4 0 -7 20 -22
14 -33 -9 -13 -11 10 -18 26 -16 34 2 10 -2 17 -9 17 -8 0 -14 -8 -14 -17 0
-31 -37 -51 -51 -28 -7 10 -11 10 -21 0 -18 -18 4 -30 44 -26 26 3 29 2 18
-12 -8 -9 -16 -11 -19 -5 -4 6 -17 8 -29 4 -12 -3 -19 -9 -16 -14 3 -5 -1 -9
-9 -9 -10 0 -13 -7 -10 -20 3 -11 10 -20 15 -20 5 0 6 5 2 12 -4 7 -3 8 5 4 6
-4 9 -11 6 -16 -3 -4 1 -11 7 -14 7 -2 4 -4 -7 -3 -11 2 -26 6 -32 10 -7 5
-13 4 -13 -2 0 -5 5 -13 10 -16 6 -3 10 -12 10 -18 0 -8 -4 -7 -9 2 -8 12 -12
13 -26 1 -13 -10 -13 -15 -3 -21 7 -5 9 -9 3 -9 -5 0 -16 4 -23 9 -11 7 -11
10 0 22 40 42 54 89 29 97 -8 3 -11 0 -7 -7 6 -10 0 -13 -20 -10 -4 0 -11 -5
-16 -13 -6 -9 -8 -8 -6 7 1 11 -2 21 -7 23 -6 2 -18 11 -27 19 -10 9 -18 13
-18 10 0 -4 -9 1 -20 10 -11 10 -20 21 -20 26 0 5 9 5 20 2 21 -7 28 10 8 18
-10 4 -10 6 0 6 6 1 12 5 12 10 0 13 -39 21 -46 9 -4 -7 -9 -6 -14 1 -3 7 -24
14 -46 16 -39 5 -39 5 -5 -4 40 -11 66 -35 56 -51 -6 -9 -9 -9 -15 0 -5 8 -9
8 -13 -3 -4 -11 0 -15 13 -12 18 4 35 -19 25 -35 -3 -5 -1 -11 5 -15 6 -4 7
-12 1 -24 -9 -17 9 -44 32 -48 13 -2 36 -37 31 -45 -3 -5 2 -8 10 -8 21 0 31
-21 15 -30 -7 -5 -17 -6 -21 -4 -4 3 -8 0 -8 -7 0 -7 -3 -10 -6 -6 -8 8 -33
-16 -27 -25 2 -5 -3 -8 -11 -8 -14 0 -21 18 -17 43 0 4 -4 7 -10 7 -6 0 -8 -8
-5 -18 4 -10 0 -27 -8 -37 -12 -16 -16 -17 -30 -6 -14 11 -16 11 -16 -3 0 -9
-8 -16 -17 -17 -15 0 -15 -2 2 -8 11 -5 23 -7 28 -4 4 2 7 0 7 -5 0 -4 -23
-15 -51 -22 -28 -8 -57 -22 -63 -32 -6 -10 -15 -18 -20 -18 -6 0 -5 5 2 12 15
15 16 32 2 23 -6 -4 -16 -2 -23 3 -7 5 -21 8 -32 6 -106 -14 -169 -35 -173
-56 -3 -15 21 -16 80 -4 22 5 26 3 22 -9 -4 -8 -12 -15 -20 -15 -7 0 -18 -9
-24 -20 -6 -11 -7 -20 -3 -19 43 7 42 -13 -1 -32 -29 -13 -36 -14 -40 -3 -3 8
-11 14 -18 13 -10 0 -10 -2 0 -6 22 -9 13 -31 -15 -36 -16 -3 -41 -9 -57 -13
-18 -4 -31 -2 -36 6 -5 7 -7 2 -7 -15 0 -15 2 -23 6 -17 7 11 25 0 54 -34 17
-21 17 -22 -3 -27 -15 -4 -20 -2 -17 8 7 17 -12 35 -36 35 -11 0 -21 9 -24 21
-3 12 -11 18 -19 15 -8 -3 -14 -1 -14 4 0 16 -15 12 -56 -16 -34 -23 -39 -24
-50 -10 -13 19 -26 21 -23 3 4 -29 -2 -42 -11 -22 -8 18 -9 18 -9 2 -1 -11 -5
-15 -13 -11 -7 5 -9 2 -5 -8 8 -22 -21 -60 -41 -54 -10 3 -28 -1 -42 -9 -25
-14 -25 -14 -2 -15 12 0 22 5 22 11 0 5 5 7 11 4 6 -5 4 -12 -8 -21 -17 -14
-17 -15 5 -9 24 7 28 -1 12 -25 -6 -10 -10 -11 -10 -2 0 6 -10 12 -22 12 -31
0 -10 -18 30 -26 28 -6 32 -4 32 14 0 11 6 23 13 26 7 3 7 5 -3 3 -8 -1 -16 3
-18 8 -1 6 14 11 33 13 19 2 33 8 30 13 -4 5 -11 6 -17 3 -7 -5 -9 -1 -5 9 3
9 1 18 -6 20 -7 2 5 12 27 21 43 18 59 21 36 6 -13 -9 -13 -11 0 -20 15 -9 13
-11 -12 -14 -12 -1 -14 -7 -9 -37 0 -7 10 -6 25 4 21 14 25 15 30 1 3 -9 2
-12 -5 -9 -5 4 -16 1 -24 -5 -8 -6 -19 -9 -24 -6 -5 4 -12 2 -16 -4 -3 -5 1
-10 10 -10 9 0 15 -5 13 -12 -8 -22 -28 -20 -37 4 -10 23 -10 23 -10 -4 l-1
-26 250 -1 c212 0 250 2 250 14 0 9 9 15 23 15 21 -1 21 -1 4 -14 -27 -21 387
-22 423 -1 14 8 21 14 17 15 -5 0 -2 7 6 15 10 10 25 13 45 9 17 -4 32 -1 36
5 13 21 36 12 36 -14 0 -22 -5 -25 -32 -25 -18 0 -40 -5 -48 -10 -11 -7 8 -10
63 -9 l77 2 0 28 c0 16 5 29 10 29 6 0 10 -13 10 -30 0 -25 4 -30 25 -30 14 0
25 5 25 10 0 6 7 10 15 10 12 0 14 46 15 315 0 248 -2 315 -12 315 -9 0 -10 2
-2 8 8 5 11 50 11 134 -1 70 -5 122 -9 115 -5 -8 -8 -5 -8 8 0 12 -5 26 -11
32 -8 8 -8 16 0 30 11 17 11 17 9 -1 -2 -10 3 -21 10 -23 9 -4 12 13 12 61 0
57 -2 65 -17 59 -13 -5 -15 -2 -10 11 4 10 7 21 7 24 0 4 5 0 10 -8 7 -11 10
1 10 39 0 30 -3 51 -7 47 -5 -4 -8 -11 -8 -14 -2 -27 -18 -50 -31 -45 -10 4
-12 0 -8 -11 3 -9 1 -16 -5 -16 -6 0 -11 7 -11 15 0 8 -6 12 -14 9 -10 -4 -16
5 -21 25 -4 17 -10 31 -15 31 -5 0 -13 12 -18 28 -6 15 -11 21 -11 13 -1 -11
-6 -10 -21 4 -20 18 -21 18 -13 -1z"/>
<path d="M3589 532 c-7 -9 -9 -14 -4 -9 11 9 45 -22 45 -42 0 -13 -2 -13 -9
-2 -5 7 -14 10 -20 7 -6 -4 -21 0 -33 8 -28 20 -38 20 -38 1 0 -9 6 -12 15 -9
11 5 13 2 9 -10 -4 -10 0 -18 10 -22 21 -8 20 -23 -1 -41 -16 -12 -15 -13 10
-7 22 5 26 3 21 -10 -5 -13 1 -16 27 -16 19 0 41 -5 49 -11 13 -9 13 -10 0 -8
-8 1 -22 1 -30 0 -13 -1 -13 -2 0 -12 12 -8 8 -9 -15 -5 -43 7 -64 -7 -42 -28
10 -10 18 -12 22 -6 3 5 1 10 -4 10 -6 0 -11 4 -11 10 0 5 6 7 14 4 16 -6 38
-52 31 -64 -3 -5 3 -8 13 -7 13 1 18 7 14 19 -2 10 -8 18 -13 18 -5 0 -9 6 -9
13 0 8 12 13 30 12 17 0 30 -3 30 -7 0 -5 -5 -8 -12 -8 -9 0 -9 -3 0 -12 7 -7
12 -20 12 -30 0 -26 34 -39 90 -35 59 5 73 13 36 23 -30 7 -33 19 -11 40 8 9
15 12 15 8 0 -3 6 -1 14 5 11 9 17 8 29 -4 18 -17 37 -20 37 -5 0 6 15 10 34
10 19 0 36 6 38 12 7 20 -71 90 -92 83 -13 -4 -19 1 -24 20 -4 14 -10 24 -15
21 -4 -3 -8 1 -8 9 0 10 5 11 17 5 10 -5 20 -7 23 -3 4 3 4 -4 2 -16 -2 -13 0
-19 6 -15 6 3 24 -3 40 -15 15 -11 33 -21 38 -21 15 0 105 -44 109 -52 7 -15
32 -8 32 10 0 13 -2 14 -9 4 -6 -10 -10 -9 -14 7 -3 14 -10 19 -21 15 -11 -4
-16 -1 -16 10 0 9 5 16 10 16 6 0 10 4 10 10 0 5 -7 7 -15 4 -9 -4 -15 0 -15
9 0 19 -26 40 -52 42 -11 1 -23 8 -28 15 -5 7 -16 10 -26 6 -18 -6 -18 -5 -1
8 24 18 21 26 -8 26 -14 0 -25 -5 -25 -11 0 -5 5 -7 12 -3 6 4 8 3 5 -3 -3 -5
-24 -8 -46 -7 -37 1 -41 -1 -41 -22 0 -13 -4 -24 -10 -24 -5 0 -10 6 -10 14 0
8 -5 18 -10 21 -7 4 -9 -2 -5 -18 4 -14 2 -28 -4 -31 -6 -4 -11 -3 -11 2 0 5
-14 9 -31 10 -25 1 -28 -2 -18 -14 18 -22 7 -24 -20 -3 -13 10 -18 19 -12 19
31 0 -14 54 -70 85 -24 13 -28 13 -40 -3z"/>
</g>
</svg>
